<?xml version="1.0" encoding="utf-8"?>
<!-- Generator: Adobe Illustrator 18.0.0, SVG Export Plug-In . SVG Version: 6.00 Build 0)  -->
<!DOCTYPE svg PUBLIC "-//W3C//DTD SVG 1.1//EN" "http://www.w3.org/Graphics/SVG/1.1/DTD/svg11.dtd">
<svg version="1.1" id="Режим_изоляции"
	 xmlns="http://www.w3.org/2000/svg" xmlns:xlink="http://www.w3.org/1999/xlink" x="0px" y="0px" viewBox="0 0 211.3 209.1"
	 enable-background="new 0 0 211.3 209.1" xml:space="preserve">
<path fill="none" stroke="#F15831" stroke-width="7" stroke-linecap="round" stroke-linejoin="round" stroke-miterlimit="10" d="
	M207.8,86.2c-0.3-10-28.7-3.7-48.7-6.3c-20-2.7-23-17.3-31.3-19c-8.3-1.7-25.3-8.7-34.3-10.7c-9-2-11.2-46.7-11.2-46.7
	S54.2,38.2,52,70.4c0,0-3.5,7.8-11.2,19.1c-7.7,11.3-18,27.3-20.7,27.7c-2.7,0.3-6-4.7-9.3,2c-3.3,6.7-7.3,9.3-7.3,9.3v16.8
	c0,0,6.4-4.3,7.6-5.2c1.2-0.9,10.4-6.1,18.4-8.3c8-2.2,9.2-5.9,15.9-15.7C52,106.3,57.7,96.3,61.5,93c3.8-3.2,6.1-4.3,12.7-6.7
	c6.9-2.6,16.4-10,19.8-12.7c3.4-2.7,7-5.2,9.2-3c2.2,2.2,1.6,4.1,4.6,2.1c3-2.1,11.7-6.4,8.4,1.9c-3.3,8.3-8.1,15.1-4.4,19.6
	c3.7,4.4,12.9,11.7,12.6,23.1c-0.3,11.4,9,11.9,3.9,19.4c-5.2,7.6-12.9,14.4-19.6,11.7c-6.7-2.7-14.8-5.8-18.7,2.8
	c-3.9,8.6,0,11.7-2.5,22.7c-2.5,11-2.1,13.2-5.3,16.6c-3.3,3.4-6.5,15.1-6.5,15.1h7.2l3-8c13,2.1,12.3-15.4,17.3-18.7
	c5-3.3-0.3-7-0.3-7s8.7-16.3,25-17.3c16.3-1,30.7-7.7,48.3-9c17.7-1.3,14.3-24.7,20.3-27C202.4,116.2,208.1,96.2,207.8,86.2z"/>
<path fill="none" stroke="#F15831" stroke-width="7" stroke-linecap="round" stroke-linejoin="round" stroke-miterlimit="10" d="
	M3.5,145.3c0,0,4.9,22.5,29.6,42.5c20.5,16.7,42.5,17.8,42.5,17.8"/>
</svg>
