<?xml version="1.0" encoding="utf-8"?>
<!-- Generator: Adobe Illustrator 18.0.0, SVG Export Plug-In . SVG Version: 6.00 Build 0)  -->
<!DOCTYPE svg PUBLIC "-//W3C//DTD SVG 1.1//EN" "http://www.w3.org/Graphics/SVG/1.1/DTD/svg11.dtd">
<svg version="1.1" id="Режим_изоляции"
	 xmlns="http://www.w3.org/2000/svg" xmlns:xlink="http://www.w3.org/1999/xlink" x="0px" y="0px" viewBox="0 0 189 175.7"
	 enable-background="new 0 0 189 175.7" xml:space="preserve">
<path fill="#F15831" d="M185.8,47.6L141.5,3.3c-2.1-2.1-4.9-3.3-7.9-3.3c-2.4,0-4.7,0.8-6.6,2.1l-1.2,0.7l-57,7.8
	c-1.3,0-2.6,0.3-3.8,0.6l-2-1.9c-0.1-0.1-0.2-0.2-0.3-0.2c-2-1.7-4.6-2.7-7.3-2.7c-3,0-5.8,1.2-7.9,3.3L3.3,54.1
	c-4,4-4.4,10.3-1,14.7c0.1,0.2,0.2,0.3,0.4,0.4l19,21.2c0.6,2.6,1.5,5.2,2.5,7.9c-4.6,5.5-4.3,13.8,0.9,19c0,0,0,0,0,0l0.1,0.1
	c2.6,2.6,6.1,4,9.7,4.1c-0.1,0.6-0.1,1.1-0.1,1.7c0,3.8,1.5,7.3,4.1,10l0.1,0.1c0,0,0,0,0,0c2.7,2.7,6.2,4.1,10,4.1
	c0.4,0,0.9,0,1.3-0.1c0,0,0.1,0.1,0.1,0.1c0,0.2,0,0.4,0,0.6c0,3.8,1.5,7.3,4.1,10l0.1,0.1l0,0c2.7,2.7,6.2,4.1,10,4.1c0,0,0,0,0,0
	l1.3,1.3c0.2,3.5,1.6,6.8,4.1,9.4c0,0,0,0,0,0.1l0,0c2.5,2.5,5.8,3.9,9.3,4.1l3.7,3.7c3,3,7.1,4.7,11.4,4.7c5,0,9.6-2.2,12.7-6.1
	c1.7-2.1,2.7-4.6,3.2-7.1l2.3,2.3c3.1,3.1,7.4,4.9,11.7,4.9c3.6,0,7.1-1.2,9.9-3.4c3.1-2.5,5.2-5.9,5.9-9.8c3,2.6,6.9,4,10.8,4
	c3.6,0,7.1-1.2,9.9-3.4c3.6-2.9,5.8-7.1,6.1-11.7c0.2-4.3-1.2-8.5-4-11.6c2.6-0.5,5.1-1.5,7.1-3.2c3.6-2.9,5.8-7.1,6.1-11.7
	c0.3-4.6-1.4-9.1-4.7-12.4l-6-6c0.2-0.2,0.4-0.4,0.6-0.7c11.2-14.3,17.3-25,19.5-34.4c0.2-0.3,0.3-0.6,0.5-1l1.2-3.1
	C190,56.9,189.4,51.3,185.8,47.6L185.8,47.6z M35.1,114c-1.7,0-3.3-0.6-4.6-1.9l-0.1-0.1c-2.5-2.5-2.5-6.7,0-9.2l5.1-5.1
	c1.3-1.3,2.9-1.9,4.6-1.9c1.7,0,3.3,0.6,4.6,1.9l0.1,0.1c2.5,2.5,2.5,6.7,0,9.2l-5.1,5.1C38.5,113.3,36.8,114,35.1,114L35.1,114z
	 M53.6,128c-1.3,1.3-2.9,1.9-4.6,1.9c-1.7,0-3.3-0.6-4.6-1.9l-0.1-0.1c-2.5-2.5-2.5-6.7,0-9.2l12-12c1.3-1.3,2.9-1.9,4.6-1.9
	c1.7,0,3.3,0.6,4.6,1.9l0.1,0.1c2.5,2.5,2.5,6.7,0,9.2L53.6,128z M69.2,142.8c-1.3,1.3-2.9,1.9-4.6,1.9c-1.7,0-3.3-0.6-4.6-1.9
	l-0.1-0.1c-2.5-2.5-2.5-6.7,0-9.2l7.8-7.8c1.3-1.3,2.9-1.9,4.6-1.9c1.7,0,3.3,0.6,4.6,1.9l0.1,0.1c2.5,2.5,2.5,6.7,0,9.2L69.2,142.8
	z M80.1,159.7c-1.7,0-3.3-0.6-4.6-1.9l-0.1-0.1c-2.5-2.5-2.5-6.7,0-9.2L79,145c1.3-1.3,2.9-1.9,4.6-1.9c1.7,0,3.3,0.6,4.6,1.9
	l0.1,0.1c2.5,2.5,2.5,6.7,0,9.2l-3.5,3.5C83.5,159,81.8,159.7,80.1,159.7L80.1,159.7z M101.3,164.8c-1.7,2.2-4.2,3.2-6.7,3.2
	c-2.2,0-4.4-0.8-6-2.5l-0.7-0.7c0.8-0.5,1.5-1.1,2.2-1.8l3.5-3.5c2.5-2.5,3.8-5.7,4.1-9l2.7,2.7C103.6,156.5,104,161.4,101.3,164.8
	L101.3,164.8z M166.2,111.8c3.5,3.5,3.3,9.5-0.8,12.7c-1.5,1.2-3.3,1.8-5.2,1.8c-2.3,0-4.6-0.9-6.3-2.6l-30.9-30.9
	c-0.8-0.8-1.9-1.2-2.9-1.2c-1,0-2.1,0.4-2.9,1.2c-1.6,1.6-1.6,4.3,0,5.9l39.7,39.7c3.5,3.5,3.3,9.5-0.8,12.7
	c-1.5,1.2-3.3,1.8-5.2,1.8c-2.3,0-4.6-0.9-6.3-2.6l-39.5-39.5c-0.8-0.8-1.9-1.2-2.9-1.2c-1.1,0-2.1,0.4-2.9,1.2
	c-1.6,1.6-1.6,4.2,0,5.8l31.1,31.1c3.5,3.5,3.3,9.5-0.8,12.7c-1.5,1.2-3.3,1.8-5.2,1.8c-2.3,0-4.6-0.9-6.3-2.6l-32.1-32.1
	c-0.6-2.5-1.8-4.9-3.8-6.9l-0.1-0.1c-2.2-2.2-5-3.6-8.1-4c0.6-1.6,0.9-3.3,0.9-5c0-3.8-1.5-7.3-4.1-10l0,0l-0.1-0.1
	c-2.7-2.7-6.2-4.1-10-4.1c-2.5,0-4.9,0.7-7,1.9c-0.6-2.5-1.9-4.7-3.7-6.6l0,0c0,0,0,0,0-0.1c-2.7-2.7-6.2-4.1-10-4.1
	s-7.3,1.5-10,4.1l0,0c-0.5-1.5-0.9-3.1-1.2-4.6c-0.1-0.5-0.3-1-0.7-1.4L8.4,64.2c-1.1-1.4-1-3.4,0.3-4.7l44.3-44.3
	c0.7-0.7,1.6-1,2.5-1c0.8,0,1.7,0.3,2.3,0.9l0.4,0.3c-3,2.9-4.8,7-4.8,11.4c0,8.8,7.2,16,16,16.1l28.2,0.4L166.2,111.8z M180.7,57.7
	l-1.5,3.8c-0.3,0.4-0.5,0.9-0.7,1.4c-2.2,9.9-9.7,21.2-18.2,32c-10.8-10.8-59.5-59.5-59.5-59.5l-31.4-0.4c-4.6,0-8.4-3.8-8.4-8.4
	c0-4.6,3.8-8.4,8.4-8.4l58.8-8.1c0,0,0,0,0,0l3-1.7c0.7-0.6,1.5-0.9,2.3-0.9c0.9,0,1.8,0.4,2.5,1L180.4,53
	C181.6,54.3,181.7,56.3,180.7,57.7L180.7,57.7z M180.7,57.7"/>
</svg>
