<?xml version="1.0" encoding="utf-8"?>
<!-- Generator: Adobe Illustrator 18.0.0, SVG Export Plug-In . SVG Version: 6.00 Build 0)  -->
<!DOCTYPE svg PUBLIC "-//W3C//DTD SVG 1.1//EN" "http://www.w3.org/Graphics/SVG/1.1/DTD/svg11.dtd">
<svg version="1.1" id="Слой_1" xmlns="http://www.w3.org/2000/svg" xmlns:xlink="http://www.w3.org/1999/xlink" x="0px" y="0px"
	 viewBox="0 0 25.9 18" enable-background="new 0 0 25.9 18" xml:space="preserve">
<g>
	<g>
		<defs>
			<rect id="SVGID_1_" x="0" y="0" width="25.9" height="18"/>
		</defs>
		<clipPath id="SVGID_2_">
			<use xlink:href="#SVGID_1_"  overflow="visible"/>
		</clipPath>
		<path clip-path="url(#SVGID_2_)" fill="#1E201D" d="M1,8.2C0.6,8.6,0.6,9.1,1,9.5l8,8c0.3,0.4,0.9,0.4,1.3,0
			c0.3-0.3,0.3-0.9,0-1.3L3.8,9.8H25c0.5,0,0.9-0.4,0.9-0.9C25.9,8.4,25.5,8,25,8H3.8l6.4-6.4c0.3-0.3,0.3-0.9,0-1.3
			C9.9-0.1,9.3-0.1,9,0.3L1,8.2z M9,0.3"/>
	</g>
</g>
</svg>
