<?xml version="1.0" encoding="UTF-8" standalone="no"?>
<!-- Generator: Adobe Illustrator 18.0.0, SVG Export Plug-In . SVG Version: 6.00 Build 0)  -->

<svg
   xmlns:dc="http://purl.org/dc/elements/1.1/"
   xmlns:cc="http://creativecommons.org/ns#"
   xmlns:rdf="http://www.w3.org/1999/02/22-rdf-syntax-ns#"
   xmlns:svg="http://www.w3.org/2000/svg"
   xmlns="http://www.w3.org/2000/svg"
   xmlns:xlink="http://www.w3.org/1999/xlink"
   xmlns:sodipodi="http://sodipodi.sourceforge.net/DTD/sodipodi-0.dtd"
   xmlns:inkscape="http://www.inkscape.org/namespaces/inkscape"
   version="1.1"
   id="Слой_1"
   x="0px"
   y="0px"
   viewBox="0 0 25.9 18"
   enable-background="new 0 0 25.9 18"
   xml:space="preserve"
   inkscape:version="0.91 r13725"
   sodipodi:docname="arrow-left_grey.svg"><metadata
     id="metadata19"><rdf:RDF><cc:Work
         rdf:about=""><dc:format>image/svg+xml</dc:format><dc:type
           rdf:resource="http://purl.org/dc/dcmitype/StillImage" /></cc:Work></rdf:RDF></metadata><defs
     id="defs17" /><sodipodi:namedview
     pagecolor="#ffffff"
     bordercolor="#666666"
     borderopacity="1"
     objecttolerance="10"
     gridtolerance="10"
     guidetolerance="10"
     inkscape:pageopacity="0"
     inkscape:pageshadow="2"
     inkscape:window-width="1009"
     inkscape:window-height="641"
     id="namedview15"
     showgrid="false"
     inkscape:zoom="11.505792"
     inkscape:cx="-7.7352346"
     inkscape:cy="6.2146072"
     inkscape:window-x="658"
     inkscape:window-y="140"
     inkscape:window-maximized="0"
     inkscape:current-layer="g3" /><g
     id="g3"
     style="fill:#ff0000"><g
       id="g5"
       style="opacity:0.36199999;fill:#ff0000"
       transform="matrix(-1,0,0,-1,25.3,17.8)"><defs
         id="defs7"><rect
           id="SVGID_1_"
           width="25.9"
           height="18"
           x="0"
           y="0" /></defs><clipPath
         id="SVGID_2_"><use
           xlink:href="#SVGID_1_"
           overflow="visible"
           id="use11"
           style="overflow:visible"
           x="0"
           y="0"
           width="100%"
           height="100%" /></clipPath><path
         clip-path="url(#SVGID_2_)"
         d="m 17,0.3 c -0.3,-0.4 -0.9,-0.4 -1.3,0 -0.3,0.3 -0.3,0.9 0,1.3 L 22.1,8 0.9,8 C 0.4,8 0,8.4 0,8.9 0,9.4 0.4,9.8 0.9,9.8 l 21.2,0 -6.4,6.4 c -0.3,0.4 -0.3,0.9 0,1.3 0.4,0.4 0.9,0.4 1.3,0 l 8,-8 C 25.4,9.2 25.4,8.6 25,8.2 L 17,0.3 Z m 0,0"
         id="path13"
         style="fill:#242423"
         inkscape:connector-curvature="0" /></g></g></svg>