<?xml version="1.0" encoding="UTF-8" standalone="no"?>
<!-- Generator: Adobe Illustrator 18.0.0, SVG Export Plug-In . SVG Version: 6.00 Build 0)  -->

<svg
   xmlns:dc="http://purl.org/dc/elements/1.1/"
   xmlns:cc="http://creativecommons.org/ns#"
   xmlns:rdf="http://www.w3.org/1999/02/22-rdf-syntax-ns#"
   xmlns:svg="http://www.w3.org/2000/svg"
   xmlns="http://www.w3.org/2000/svg"
   xmlns:xlink="http://www.w3.org/1999/xlink"
   xmlns:sodipodi="http://sodipodi.sourceforge.net/DTD/sodipodi-0.dtd"
   xmlns:inkscape="http://www.inkscape.org/namespaces/inkscape"
   version="1.1"
   id="Слой_1"
   x="0px"
   y="0px"
   viewBox="0 0 25.9 18"
   enable-background="new 0 0 25.9 18"
   xml:space="preserve"
   inkscape:version="0.91 r13725"
   sodipodi:docname="arrow-right_white.svg"><metadata
     id="metadata19"><rdf:RDF><cc:Work
         rdf:about=""><dc:format>image/svg+xml</dc:format><dc:type
           rdf:resource="http://purl.org/dc/dcmitype/StillImage" /><dc:title></dc:title></cc:Work></rdf:RDF></metadata><defs
     id="defs17" /><sodipodi:namedview
     pagecolor="#ffffff"
     bordercolor="#666666"
     borderopacity="1"
     objecttolerance="10"
     gridtolerance="10"
     guidetolerance="10"
     inkscape:pageopacity="0"
     inkscape:pageshadow="2"
     inkscape:window-width="640"
     inkscape:window-height="480"
     id="namedview15"
     showgrid="false"
     inkscape:zoom="11.505792"
     inkscape:cx="12.95"
     inkscape:cy="9"
     inkscape:window-x="0"
     inkscape:window-y="27"
     inkscape:window-maximized="0"
     inkscape:current-layer="Слой_1" /><g
     id="g3"
     style="fill:#ffffff"><g
       id="g5"
       style="fill:#ffffff"><defs
         id="defs7"><rect
           id="SVGID_1_"
           width="25.9"
           height="18" /></defs><clipPath
         id="SVGID_2_"><use
           xlink:href="#SVGID_1_"
           overflow="visible"
           id="use11" /></clipPath><path
         clip-path="url(#SVGID_2_)"
         fill="#1E201D"
         d="M17,0.3c-0.3-0.4-0.9-0.4-1.3,0c-0.3,0.3-0.3,0.9,0,1.3L22.1,8H0.9    C0.4,8,0,8.4,0,8.9c0,0.5,0.4,0.9,0.9,0.9h21.2l-6.4,6.4c-0.3,0.4-0.3,0.9,0,1.3c0.4,0.4,0.9,0.4,1.3,0l8-8c0.4-0.3,0.4-0.9,0-1.3    L17,0.3z M17,0.3"
         id="path13"
         style="fill:#ffffff" /></g></g></svg>