<?xml version="1.0" encoding="UTF-8" standalone="no"?>
<!-- Generator: Adobe Illustrator 18.0.0, SVG Export Plug-In . SVG Version: 6.00 Build 0)  -->

<svg
   xmlns:dc="http://purl.org/dc/elements/1.1/"
   xmlns:cc="http://creativecommons.org/ns#"
   xmlns:rdf="http://www.w3.org/1999/02/22-rdf-syntax-ns#"
   xmlns:svg="http://www.w3.org/2000/svg"
   xmlns="http://www.w3.org/2000/svg"
   xmlns:sodipodi="http://sodipodi.sourceforge.net/DTD/sodipodi-0.dtd"
   xmlns:inkscape="http://www.inkscape.org/namespaces/inkscape"
   version="1.1"
   id="Слой_1"
   x="0px"
   y="0px"
   viewBox="0 0 386.6 294.2"
   enable-background="new 0 0 386.6 294.2"
   xml:space="preserve"
   inkscape:version="0.91 r13725"
   sodipodi:docname="contacts3.svg"><metadata
     id="metadata13"><rdf:RDF><cc:Work
         rdf:about=""><dc:format>image/svg+xml</dc:format><dc:type
           rdf:resource="http://purl.org/dc/dcmitype/StillImage" /></cc:Work></rdf:RDF></metadata><defs
     id="defs11" /><sodipodi:namedview
     pagecolor="#ffffff"
     bordercolor="#666666"
     borderopacity="1"
     objecttolerance="10"
     gridtolerance="10"
     guidetolerance="10"
     inkscape:pageopacity="0"
     inkscape:pageshadow="2"
     inkscape:window-width="640"
     inkscape:window-height="480"
     id="namedview9"
     showgrid="false"
     inkscape:zoom="0.77082254"
     inkscape:cx="193.3"
     inkscape:cy="147.10001"
     inkscape:window-x="0"
     inkscape:window-y="27"
     inkscape:window-maximized="0"
     inkscape:current-layer="Слой_1" /><g
     id="g3"
     style="fill:#e0552f"><path
       d="M339.4,0H47.3C21.2,0,0,21.2,0,47.3V247c0,26.1,21.2,47.3,47.3,47.3h292.1c26.1,0,47.3-21.2,47.3-47.3V47.4   C386.7,21.3,365.5,0,339.4,0L339.4,0z M365.1,247c0,14.2-11.5,25.7-25.7,25.7H47.3c-14.2,0-25.7-11.5-25.7-25.7V47.4   c0-14.2,11.5-25.7,25.7-25.7h292.1c14.2,0,25.7,11.5,25.7,25.7L365.1,247L365.1,247z M365.1,247"
       id="path5"
       style="fill:#e0552f" /><path
       d="M243.8,144.6l94.6-84.8c4.4-4,4.8-10.8,0.8-15.3c-4-4.4-10.8-4.8-15.3-0.8l-130.4,117l-25.4-22.7c-0.1-0.1-0.2-0.2-0.2-0.2   c-0.6-0.6-1.1-1-1.8-1.5L62.6,43.7c-4.5-4-11.3-3.6-15.3,0.9c-4,4.5-3.6,11.3,0.9,15.3l95.7,85.5l-95.3,89.2   c-4.3,4.1-4.6,10.9-0.5,15.3c2.2,2.2,5,3.4,7.9,3.4c2.6,0,5.3-1,7.4-2.9l96.7-90.5l26.2,23.4c2.1,1.8,4.6,2.7,7.2,2.7   c2.6,0,5.2-1,7.2-2.8l27-24.2l96.2,91.4c2.1,2,4.8,3,7.4,3c2.9,0,5.7-1.1,7.8-3.4c4.1-4.3,3.9-11.2-0.4-15.3L243.8,144.6z    M243.8,144.6"
       id="path7"
       style="fill:#e0552f" /></g></svg>
