<?xml version="1.0" encoding="UTF-8" standalone="no"?>
<!-- Generator: Adobe Illustrator 18.0.0, SVG Export Plug-In . SVG Version: 6.00 Build 0)  -->

<svg
   xmlns:dc="http://purl.org/dc/elements/1.1/"
   xmlns:cc="http://creativecommons.org/ns#"
   xmlns:rdf="http://www.w3.org/1999/02/22-rdf-syntax-ns#"
   xmlns:svg="http://www.w3.org/2000/svg"
   xmlns="http://www.w3.org/2000/svg"
   xmlns:sodipodi="http://sodipodi.sourceforge.net/DTD/sodipodi-0.dtd"
   xmlns:inkscape="http://www.inkscape.org/namespaces/inkscape"
   version="1.1"
   id="Слой_1"
   x="0px"
   y="0px"
   viewBox="0 0 306.1 381.6"
   enable-background="new 0 0 306.1 381.6"
   xml:space="preserve"
   inkscape:version="0.91 r13725"
   sodipodi:docname="contacts1.svg"><metadata
     id="metadata13"><rdf:RDF><cc:Work
         rdf:about=""><dc:format>image/svg+xml</dc:format><dc:type
           rdf:resource="http://purl.org/dc/dcmitype/StillImage" /></cc:Work></rdf:RDF></metadata><defs
     id="defs11" /><sodipodi:namedview
     pagecolor="#ffffff"
     bordercolor="#666666"
     borderopacity="1"
     objecttolerance="10"
     gridtolerance="10"
     guidetolerance="10"
     inkscape:pageopacity="0"
     inkscape:pageshadow="2"
     inkscape:window-width="952"
     inkscape:window-height="764"
     id="namedview9"
     showgrid="false"
     inkscape:zoom="0.61844863"
     inkscape:cx="153.05"
     inkscape:cy="190.8"
     inkscape:window-x="0"
     inkscape:window-y="27"
     inkscape:window-maximized="0"
     inkscape:current-layer="Слой_1" /><g
     id="g3"
     style="fill:#e0552f"><path
       d="M153,0C68.6,0,0,68.6,0,153c0,9.6,0.9,19.3,2.7,28.7c0.1,0.6,0.4,2.2,1,5.1C6.1,197.1,9.5,207.3,14,217   c16.5,38.8,52.7,98.4,132.2,162.2c2,1.6,4.4,2.4,6.8,2.4c2.4,0,4.8-0.8,6.8-2.4c79.4-63.8,115.8-123.4,132.2-162.2   c4.5-9.7,7.9-19.8,10.2-30.2c0.6-2.9,1-4.6,1-5.1c1.8-9.4,2.7-19.1,2.7-28.7C305.9,68.6,237.3,0,153,0L153,0z M281.9,177.9   c0,0.2-0.1,0.3-0.1,0.5c-0.1,0.4-0.3,1.6-0.7,3.4v0.2c-2,9-5,17.7-8.9,26.1c-0.1,0.1-0.1,0.2-0.2,0.3   c-15,35.4-47.8,89.5-119.1,148.5c-71.4-59-104.2-113-119.1-148.5c-0.1-0.1-0.1-0.2-0.2-0.3c-3.8-8.3-6.8-17.1-8.9-26.1v-0.2   c-0.5-1.8-0.6-3-0.7-3.4c0-0.2-0.1-0.3-0.1-0.6c-1.6-8.2-2.4-16.6-2.4-25c0-72.4,59-131.4,131.4-131.4c72.4,0,131.4,59,131.4,131.4   C284.3,161.4,283.5,169.8,281.9,177.9L281.9,177.9z M281.9,177.9"
       id="path5"
       style="fill:#e0552f" /><path
       d="M153,57.5c-53.5,0-97.1,43.6-97.1,97.1c0,53.5,43.6,97.1,97.1,97.1c53.5,0,97.1-43.6,97.1-97.1   C250.1,101.1,206.5,57.5,153,57.5L153,57.5z M153,230.2c-41.7,0-75.5-33.9-75.5-75.5c0-41.6,33.9-75.5,75.5-75.5   c41.6,0,75.5,33.9,75.5,75.5C228.5,196.2,194.6,230.2,153,230.2L153,230.2z M153,230.2"
       id="path7"
       style="fill:#e0552f" /></g></svg>
