<?xml version="1.0" encoding="UTF-8" standalone="no"?>
<!-- Generator: Adobe Illustrator 18.0.0, SVG Export Plug-In . SVG Version: 6.00 Build 0)  -->

<svg
   xmlns:dc="http://purl.org/dc/elements/1.1/"
   xmlns:cc="http://creativecommons.org/ns#"
   xmlns:rdf="http://www.w3.org/1999/02/22-rdf-syntax-ns#"
   xmlns:svg="http://www.w3.org/2000/svg"
   xmlns="http://www.w3.org/2000/svg"
   xmlns:sodipodi="http://sodipodi.sourceforge.net/DTD/sodipodi-0.dtd"
   xmlns:inkscape="http://www.inkscape.org/namespaces/inkscape"
   version="1.1"
   id="Слой_1"
   x="0px"
   y="0px"
   viewBox="0 0 179.2 169.7"
   enable-background="new 0 0 179.2 169.7"
   xml:space="preserve"
   inkscape:version="0.91 r13725"
   sodipodi:docname="coop2.svg"><metadata
     id="metadata15"><rdf:RDF><cc:Work
         rdf:about=""><dc:format>image/svg+xml</dc:format><dc:type
           rdf:resource="http://purl.org/dc/dcmitype/StillImage" /></cc:Work></rdf:RDF></metadata><defs
     id="defs13" /><sodipodi:namedview
     pagecolor="#ffffff"
     bordercolor="#666666"
     borderopacity="1"
     objecttolerance="10"
     gridtolerance="10"
     guidetolerance="10"
     inkscape:pageopacity="0"
     inkscape:pageshadow="2"
     inkscape:window-width="640"
     inkscape:window-height="480"
     id="namedview11"
     showgrid="false"
     inkscape:zoom="1.3906895"
     inkscape:cx="89.599998"
     inkscape:cy="84.849998"
     inkscape:window-x="0"
     inkscape:window-y="27"
     inkscape:window-maximized="0"
     inkscape:current-layer="Слой_1" /><g
     id="g3"
     style="fill:#ffffff"><path
       d="M164.9,0H14.3C6.4,0,0,6.4,0,14.3v114.4c0,7.9,6.4,14.3,14.3,14.3h55.3v21h-20c-1.6,0-2.9,1.3-2.9,2.9s1.3,2.9,2.9,2.9   h80.1c1.6,0,2.9-1.3,2.9-2.9s-1.3-2.9-2.9-2.9h-20v-21h55.3c7.9,0,14.3-6.4,14.3-14.3V14.3C179.2,6.4,172.8,0,164.9,0L164.9,0z    M103.9,164H75.3v-21h28.6V164z M173.5,128.7c0,4.7-3.8,8.6-8.6,8.6H14.3c-4.7,0-8.6-3.8-8.6-8.6v-8.6h167.8V128.7z M173.5,114.4   H5.7V14.3c0-4.7,3.8-8.6,8.6-8.6h150.6c4.7,0,8.6,3.8,8.6,8.6V114.4z M173.5,114.4"
       id="path5"
       style="fill:#ffffff" /><path
       d="M164.5,108.6h-150c-2,0-3.6-1.6-3.6-3.6V15c0-2,1.6-3.6,3.6-3.6h150c2,0,3.6,1.6,3.6,3.6v90   C168,107,166.4,108.6,164.5,108.6z M16,103.5h146.9V16.6H16V103.5z"
       id="path7"
       style="fill:#ffffff" /></g><path
     d="M105.9,88.9c-3.5,0-6.5-2.2-7.6-5.5h-20c-1,3.3-4,5.5-7.6,5.5c-4.4,0-8-3.6-8-8c0-4.4,3.6-8,8-8c3.5,0,6.5,2.2,7.6,5.5h20.1  c1-3.3,4-5.5,7.6-5.5c0.3,0,0.6,0,0.9,0.1l0.7-3.3H68.1c-2.6,0-4.2-1.8-4.7-3.7l-6-24.9c0-0.1,0-0.2,0-0.2v-0.1  c-0.1-1,0.2-2,0.9-2.8c0.8-0.9,1.9-1.3,3.2-1.3h52.9l0.5-2.4c0-0.4,0.1-1,0.5-1.8c0.3-0.6,1.4-1.9,3.7-1.9h4.3  c0.7,0,1.3,0.3,1.8,0.7c0.4,0.5,0.7,1,0.7,1.7c0,1.3-1.1,2.4-2.4,2.4h-3.8l-0.7,4.1l-5.4,25.4l-2.1,10.4c1.5,1.5,2.4,3.6,2.4,5.7  C113.9,85.3,110.3,88.9,105.9,88.9z M105.9,78.1c-1.7,0-3,1.3-3,3s1.3,3,3,3c1.7,0,3-1.3,3-3C108.9,79.4,107.6,78.1,105.9,78.1z   M70.7,78.1c-1.7,0-3,1.3-3,3s1.3,3,3,3c1.7,0,3-1.3,3-3C73.7,79.4,72.4,78.1,70.7,78.1z M108.5,64.8l3.2-14.8h-47l3.6,14.8  L108.5,64.8z M112.8,45l0.7-3.4H62.7l0.8,3.4H112.8z"
     id="path9"
     style="fill:#ffffff" /></svg>