<?xml version="1.0" encoding="UTF-8" standalone="no"?>
<!-- Generator: Adobe Illustrator 18.0.0, SVG Export Plug-In . SVG Version: 6.00 Build 0)  -->

<svg
   xmlns:dc="http://purl.org/dc/elements/1.1/"
   xmlns:cc="http://creativecommons.org/ns#"
   xmlns:rdf="http://www.w3.org/1999/02/22-rdf-syntax-ns#"
   xmlns:svg="http://www.w3.org/2000/svg"
   xmlns="http://www.w3.org/2000/svg"
   xmlns:sodipodi="http://sodipodi.sourceforge.net/DTD/sodipodi-0.dtd"
   xmlns:inkscape="http://www.inkscape.org/namespaces/inkscape"
   version="1.1"
   id="Слой_1"
   x="0px"
   y="0px"
   viewBox="0 0 170.9 175.7"
   enable-background="new 0 0 170.9 175.7"
   xml:space="preserve"
   inkscape:version="0.91 r13725"
   sodipodi:docname="coop4.svg"><metadata
     id="metadata47"><rdf:RDF><cc:Work
         rdf:about=""><dc:format>image/svg+xml</dc:format><dc:type
           rdf:resource="http://purl.org/dc/dcmitype/StillImage" /></cc:Work></rdf:RDF></metadata><defs
     id="defs45" /><sodipodi:namedview
     pagecolor="#ffffff"
     bordercolor="#666666"
     borderopacity="1"
     objecttolerance="10"
     gridtolerance="10"
     guidetolerance="10"
     inkscape:pageopacity="0"
     inkscape:pageshadow="2"
     inkscape:window-width="640"
     inkscape:window-height="480"
     id="namedview43"
     showgrid="false"
     inkscape:zoom="1.3431987"
     inkscape:cx="116.25988"
     inkscape:cy="78.997689"
     inkscape:window-x="0"
     inkscape:window-y="27"
     inkscape:window-maximized="0"
     inkscape:current-layer="Слой_1" /><path
     d="M28.5,127.3c-7.1,0-14.3-5.7-17.8-14.2c-2.1-5.1-2.6-10.6-1.4-15.4c1.2-4.8,4-8.4,7.9-10c1.5-0.6,3-0.9,4.7-0.9  c7.1,0,14.3,5.7,17.8,14.2c4.4,10.7,1.5,22-6.5,25.3C31.8,127,30.2,127.3,28.5,127.3C28.6,127.3,28.6,127.3,28.5,127.3z M21.9,92.8  c-0.9,0-1.7,0.2-2.4,0.5c-2.3,1-4,3.3-4.6,6.6c-0.7,3.4-0.2,7.3,1.3,10.9c2.5,6.1,7.7,10.6,12.3,10.6c0.9,0,1.7-0.2,2.4-0.5  c4.9-2,6.4-10.1,3.3-17.5C31.7,97.2,26.5,92.8,21.9,92.8z"
     id="path3"
     style="fill:#ffffff" /><path
     d="M33,125.9c7.7-3.2,10.6-14.3,6.2-24.7C35,90.9,25.2,85,17.4,88.2c-7.8,3.2-10.6,14.3-6.2,24.7  C15.5,123.3,25.3,129.1,33,125.9L33,125.9z M19.3,92.8c5.1-2.1,12.2,2.6,15.4,10.4c3.2,7.7,1.6,16.1-3.6,18.2  C26,123.5,19,118.7,15.8,111C12.6,103.3,14.2,94.9,19.3,92.8L19.3,92.8z M19.3,92.8"
     id="path5"
     style="fill:#ffffff" /><path
     d="M42.4,175.7c-0.6,0-1.2-0.1-1.8-0.2c-4.7-0.8-8.5-4.1-10.9-9.1c-2.2-4.7-2.8-10.5-1.8-16.3c0.1-0.6,0.3-1.1,0.4-1.6  c0.1-0.4,0.3-0.8,0.3-1c0.5-8.6,6.1-19.9,20-25.6l0.5-0.2c4.4-1.7,8.8-2.6,13.2-2.6c7.3,0,14.4,2.6,19.2,6.9  c0.3,0.2,0.7,0.5,1.1,0.7c0.5,0.3,1.1,0.6,1.6,1c4.8,3.7,8.2,8.6,9.6,13.7c1.4,5.2,0.7,10-2.1,13.6c-1,1.4-2.4,2.4-3.9,3  c-1.3,0.5-2.8,0.8-4.5,0.8l0,0c-2.3,0-4.7-0.5-7.3-0.9c-2.7-0.5-5.5-1.1-8.5-1.1c-0.3,0-1.9,0.5-4.3,1.4c-1.9,0.8-3,1.4-3.2,1.6  c-2.1,2.1-3.8,4.4-5.4,6.7l-0.1,0.1c-2.7,3.7-5,6.9-8.5,8.4C44.8,175.4,43.6,175.7,42.4,175.7z M62.3,124.9c-3.6,0-7.3,0.7-11,2.2  l-0.5,0.2C39.4,132,34.9,141,34.5,147.8c-0.1,0.9-0.3,1.7-0.5,2.5c-0.1,0.3-0.2,0.6-0.3,0.9c-0.8,4.6-0.4,9.1,1.3,12.7  c1.5,3.2,3.8,5.3,6.6,5.8c0.3,0.1,0.5,0.1,0.8,0.1c0.5,0,0.9-0.1,1.3-0.3c1.9-0.8,3.8-3.3,5.9-6.3l0.1-0.1c1.7-2.4,3.7-5,6.1-7.5  c0.8-0.8,2.5-1.8,5.1-2.8c1.7-0.7,4.8-1.9,6.6-1.9c3.5,0.1,6.7,0.7,9.5,1.2c2.3,0.4,4.4,0.9,6.2,0.9c0.9,0,1.7-0.1,2.3-0.4  c0.6-0.2,1-0.6,1.5-1.2c3.7-4.8,0.8-13.3-6.5-19c-0.3-0.2-0.6-0.4-1-0.6c-0.7-0.4-1.4-0.8-2-1.4C73.8,126.9,68.1,124.9,62.3,124.9z"
     id="path7"
     style="fill:#ffffff" /><path
     d="M82.3,127c-0.5-0.3-0.9-0.5-1.2-0.8c-5.9-5.4-17.8-9.8-31.9-4.2l-0.5,0.2C35,127.9,29.6,139,29.1,147.4  c0,0.3-0.1,0.7-0.3,1.2c-0.2,0.5-0.3,1.1-0.4,1.6c-1,5.7-0.4,11.4,1.8,16c2.3,4.9,6,8,10.5,8.8c1.8,0.3,3.6,0.2,5.2-0.5  c3.4-1.4,5.6-4.5,8.3-8.2c1.7-2.3,3.4-4.7,5.6-6.9c0.3-0.2,1.4-0.9,3.3-1.7c2.3-1,4.1-1.4,4.5-1.5c3,0.1,5.8,0.6,8.6,1.1  c4.2,0.8,8.1,1.6,11.5,0.2c1.4-0.6,2.7-1.6,3.7-2.9c5.6-7.2,2.3-19.1-7.4-26.7C83.3,127.7,82.8,127.4,82.3,127L82.3,127z   M87.3,151.7c-0.5,0.6-1,1-1.7,1.3c-2,0.8-5.1,0.2-8.7-0.5c-2.8-0.5-6-1.1-9.4-1.2c-1.7,0-4.8,1.1-6.5,1.8c-2.5,1-4.1,1.9-4.9,2.7  c-2.5,2.5-4.4,5.1-6.1,7.5c-2.2,3-4.1,5.7-6.2,6.5c-0.7,0.3-1.5,0.4-2.4,0.2c-2.9-0.5-5.3-2.7-6.9-6.1c-1.7-3.7-2.2-8.3-1.4-13  c0.1-0.3,0.2-0.7,0.3-1c0.2-0.7,0.5-1.4,0.5-2.3c0.4-6.9,5-16.1,16.6-20.9l0.5-0.2c11.9-4.7,21.8-1.2,26.7,3.3c0.6,0.6,1.3,1,2,1.4  c0.4,0.2,0.7,0.4,1,0.7C88.3,137.8,91.2,146.7,87.3,151.7L87.3,151.7z M87.3,151.7"
     id="path9"
     style="fill:#ffffff" /><path
     d="M58.4,114.9c-7.1,0-14.3-5.7-17.8-14.2c-2.1-5.1-2.6-10.6-1.4-15.4c1.2-4.8,4-8.4,7.9-10c1.5-0.6,3-0.9,4.7-0.9  c7.2,0,14.3,5.7,17.8,14.2c2.1,5.1,2.6,10.6,1.4,15.4c-1.2,4.8-4,8.4-7.9,10C61.6,114.6,60.1,114.9,58.4,114.9  C58.4,114.9,58.4,114.9,58.4,114.9z M51.8,80.4c-0.9,0-1.7,0.2-2.4,0.5c-2.3,1-4,3.3-4.6,6.6c-0.7,3.4-0.2,7.3,1.3,10.9  c2.5,6.1,7.7,10.6,12.3,10.6c0.9,0,1.7-0.2,2.4-0.5c4.9-2,6.4-10,3.3-17.5C61.6,84.9,56.4,80.4,51.8,80.4z"
     id="path11"
     style="fill:#ffffff" /><path
     d="M62.9,113.6c7.7-3.2,10.6-14.3,6.2-24.7c-4.3-10.4-14.1-16.3-21.9-13c-7.8,3.2-10.6,14.3-6.2,24.7  C45.4,110.9,55.2,116.8,62.9,113.6L62.9,113.6z M49.2,80.4c5.1-2.1,12.2,2.6,15.4,10.4c3.2,7.7,1.6,16.1-3.6,18.2  c-5.1,2.1-12.2-2.6-15.4-10.4C42.4,90.9,44.1,82.6,49.2,80.4L49.2,80.4z M49.2,80.4"
     id="path13"
     style="fill:#ffffff" /><path
     d="M90.4,124.9c-5.6,0-11.2-4.5-13.9-11.1c-1.7-4.1-2.1-8.4-1.1-12.1c1-3.8,3.2-6.5,6.4-7.8c1.2-0.5,2.5-0.8,3.9-0.8  c5.6,0,11.2,4.5,13.9,11.1c1.7,4.1,2.1,8.4,1.1,12.1c-1,3.8-3.3,6.5-6.4,7.8C93.1,124.6,91.8,124.9,90.4,124.9L90.4,124.9z   M85.6,99.1c-0.5,0-1.1,0.1-1.6,0.3c-3.3,1.4-4.2,6.9-2,12.1c1.8,4.3,5.3,7.4,8.4,7.4c0.6,0,1.1-0.1,1.6-0.3c1.5-0.6,2.6-2.2,3-4.5  c0.4-2.3,0.1-5.1-1-7.6C92.3,102.2,88.7,99.1,85.6,99.1z"
     id="path15"
     style="fill:#ffffff" /><path
     d="M82,94.3c-6.2,2.6-8.4,11-5,19.2c3.4,8.2,10.9,12.6,17.1,10.1c6.2-2.6,8.4-11,5-19.2C95.7,96.2,88.2,91.8,82,94.3L82,94.3z   M92.2,119.1c-3.5,1.5-8.4-1.9-10.7-7.4c-2.3-5.5-1.2-11.3,2.3-12.8c3.5-1.5,8.4,1.9,10.7,7.4C96.8,111.8,95.7,117.6,92.2,119.1  L92.2,119.1z M92.2,119.1"
     id="path17"
     style="fill:#ffffff" /><path
     d="M15.6,155.9c-5.6,0-11.2-4.5-13.9-11.1c-1.7-4.1-2.1-8.4-1.1-12.1c1-3.8,3.2-6.5,6.4-7.8c1.2-0.5,2.5-0.8,3.9-0.8  c5.6,0,11.2,4.5,13.9,11.1c3.5,8.5,1.2,17.2-5.3,19.9C18.2,155.6,16.9,155.9,15.6,155.9L15.6,155.9z M10.7,130.1  c-0.6,0-1.1,0.1-1.6,0.3c-1.5,0.6-2.6,2.2-3,4.5c-0.4,2.3-0.1,5.1,1,7.6c1.8,4.3,5.3,7.4,8.4,7.4c0.6,0,1.1-0.1,1.6-0.3  c3.3-1.4,4.2-6.9,2.1-12.1C17.4,133.2,13.9,130.1,10.7,130.1z"
     id="path19"
     style="fill:#ffffff" /><path
     d="M24.2,135.4c-3.4-8.2-10.9-12.7-17.1-10.1c-6.2,2.6-8.4,11-5,19.2c3.4,8.2,10.9,12.6,17.1,10.1  C25.4,152.1,27.6,143.6,24.2,135.4L24.2,135.4z M17.3,150.1c-3.5,1.5-8.4-1.9-10.7-7.4c-2.3-5.5-1.2-11.3,2.3-12.8  c3.5-1.5,8.4,1.9,10.7,7.4C21.9,142.8,20.9,148.6,17.3,150.1L17.3,150.1z M17.3,150.1"
     id="path21"
     style="fill:#ffffff" /><path
     d="M113,40.2c-1.9,0-3.6-0.4-5.2-1.1c-3.8-1.8-6.5-5.5-7.5-10.3c-1-4.8-0.2-10.2,2.1-15.3c3.8-8,10.9-13.4,17.9-13.4  c1.9,0,3.6,0.4,5.2,1.1c7.8,3.7,10.2,15.2,5.3,25.6C127.1,34.8,119.9,40.2,113,40.2L113,40.2z M120.3,6c-4.6,0-9.7,4.1-12.4,10  c-1.7,3.6-2.3,7.4-1.8,10.8c0.5,3.3,2,5.8,4.3,6.8c0.8,0.4,1.8,0.6,2.7,0.6c4.6,0,9.7-4.1,12.4-10c1.7-3.6,2.3-7.4,1.8-10.8  c-0.5-3.3-2-5.8-4.3-6.8C122.2,6.2,121.3,6,120.3,6z"
     id="path23"
     style="fill:#ffffff" /><path
     d="M108,38.6c7.6,3.6,17.7-1.8,22.4-12c4.8-10.2,2.5-21.4-5.1-24.9c-7.6-3.6-17.7,1.8-22.4,12C98.1,23.8,100.4,35,108,38.6  L108,38.6z M123.2,6.1c5,2.4,6.3,10.8,2.7,18.3c-3.6,7.6-10.8,12-15.8,9.6c-5-2.4-6.3-10.8-2.7-18.3C111,8.1,118.2,3.7,123.2,6.1  L123.2,6.1z M123.2,6.1"
     id="path25"
     style="fill:#ffffff" /><path
     d="M125.1,101.5c-1.4,0-2.8-0.3-4-0.9c-3.4-1.6-5.6-5.1-7.9-8.8c-1.4-2.4-2.9-4.8-4.9-7c-0.2-0.2-1.6-1.1-3.9-2.2  c-1.9-0.9-3.1-1.3-3.3-1.3c-0.4,0-0.9,0-1.4,0c-2.5,0-4.9,0.3-7.2,0.5l-0.1,0c-2.2,0.2-4.2,0.5-6.1,0.5c-2.3,0-4.2-0.4-5.8-1.1  c-1.7-0.8-3.1-2-4.1-3.7c-2.5-4-2.7-9.1-0.6-14.2c2-4.8,5.8-9.2,10.8-12.3c0.5-0.3,1-0.5,1.5-0.8c0.4-0.2,0.8-0.4,0.9-0.5  c2.8-2.2,8.7-5.9,17.6-5.9c4.9,0,9.9,1.2,14.8,3.5l0.5,0.3c13.8,6.7,18.6,18.6,18.6,26.8c0,0.3,0.1,0.8,0.2,1.3  c0.1,0.6,0.2,1.2,0.3,1.9c1,12.5-5.8,23.3-15.2,24C125.7,101.5,125.4,101.5,125.1,101.5L125.1,101.5z M99.8,75.3c0.6,0,1.2,0,1.7,0  c1.1,0.1,3,0.7,5.5,1.8c1.7,0.8,4.7,2.3,5.9,3.7c2.3,2.6,4,5.4,5.5,7.8c1.9,3.1,3.5,5.7,5.3,6.5c0.5,0.2,1,0.3,1.5,0.3  c0.1,0,0.2,0,0.4,0c6.1-0.5,10.4-8.4,9.7-17.6c0-0.4-0.1-0.8-0.2-1.2c-0.2-0.8-0.3-1.6-0.3-2.5c0-6.5-4-16-15.3-21.5l-0.5-0.2  c-4.1-1.9-8.2-2.9-12.3-2.9c-7.1,0-11.7,2.9-13.9,4.6c-0.7,0.6-1.5,1-2.2,1.3c-0.3,0.1-0.6,0.3-0.9,0.4c-3.9,2.5-7,5.8-8.5,9.5  C80,68.9,80,72,81.5,74.3c0.4,0.7,0.9,1.1,1.6,1.4c0.8,0.4,1.9,0.5,3.3,0.5c1.6,0,3.4-0.2,5.4-0.4l0.1,0  C94.2,75.6,96.9,75.3,99.8,75.3z"
     id="path27"
     style="fill:#ffffff" /><path
     d="M140.4,75.7c-0.1-0.5-0.2-1-0.2-1.4c0-8-4.8-19.8-18.3-26.4l-0.5-0.3c-13.5-6.3-25.3-2.9-31.9,2.4c-0.2,0.2-0.6,0.4-1,0.6  c-0.5,0.2-1,0.5-1.5,0.8c-4.9,3.1-8.7,7.4-10.6,12.1c-2.1,5-1.9,9.9,0.6,13.7c1,1.6,2.3,2.7,3.9,3.5c3.3,1.5,7.2,1.1,11.6,0.6  c2.9-0.3,5.8-0.7,8.8-0.5c0.3,0,1.6,0.4,3.5,1.3c2.3,1.1,3.8,2,4.1,2.3c2,2.3,3.5,4.7,4.9,7.1c2.2,3.6,4.3,7.1,7.6,8.6  c1.4,0.7,3,0.9,4.6,0.8c9.1-0.7,15.7-11.2,14.7-23.4C140.6,76.9,140.5,76.3,140.4,75.7L140.4,75.7z M125.5,96  c-0.8,0.1-1.5-0.1-2.1-0.4c-2-0.9-3.6-3.6-5.5-6.7c-1.5-2.4-3.2-5.2-5.4-7.8c-1.1-1.3-4.1-2.8-5.7-3.6c-2.4-1.1-4.2-1.8-5.3-1.8  c-3.5-0.2-6.8,0.2-9.7,0.5c-3.7,0.4-7,0.8-9-0.2c-0.7-0.3-1.3-0.9-1.8-1.6c-1.6-2.5-1.6-5.7-0.2-9.2c1.6-3.8,4.6-7.2,8.7-9.7  c0.3-0.2,0.6-0.3,0.9-0.5c0.6-0.3,1.4-0.6,2.1-1.2c5.4-4.4,15.3-7.1,26.6-1.8l0.5,0.2c11.5,5.6,15.6,15.3,15.6,21.9  c0,0.9,0.2,1.7,0.3,2.4c0.1,0.4,0.2,0.8,0.2,1.2C136.4,87.4,131.9,95.5,125.5,96L125.5,96z M125.5,96"
     id="path29"
     style="fill:#ffffff" /><path
     d="M142.3,53.9c-1.8,0-3.6-0.4-5.2-1.1c-3.8-1.8-6.5-5.5-7.5-10.3c-1-4.8-0.2-10.2,2.1-15.3c3.8-8,10.9-13.4,17.9-13.4  c1.9,0,3.6,0.4,5.2,1.1c3.8,1.8,6.5,5.5,7.5,10.3c1,4.8,0.2,10.2-2.1,15.3C156.4,48.5,149.2,53.9,142.3,53.9  C142.3,53.9,142.3,53.9,142.3,53.9z M149.6,19.7c-4.6,0-9.7,4.1-12.4,10c-3.4,7.3-2.3,15.4,2.5,17.7c0.8,0.4,1.8,0.6,2.7,0.6  c4.6,0,9.7-4.1,12.4-10c3.4-7.3,2.3-15.4-2.5-17.7C151.5,19.9,150.5,19.7,149.6,19.7z"
     id="path31"
     style="fill:#ffffff" /><path
     d="M137.3,52.3c7.6,3.6,17.7-1.8,22.4-12c4.8-10.2,2.5-21.4-5.1-24.9c-7.6-3.6-17.7,1.8-22.4,12  C127.4,37.5,129.7,48.7,137.3,52.3L137.3,52.3z M152.5,19.8c5,2.4,6.3,10.8,2.7,18.3c-3.6,7.6-10.8,12-15.8,9.6  c-5-2.4-6.3-10.8-2.7-18.3C140.2,21.9,147.5,17.5,152.5,19.8L152.5,19.8z M152.5,19.8"
     id="path33"
     style="fill:#ffffff" /><path
     d="M154.9,83.6c-1.5,0-3-0.3-4.3-1c-6.3-3-8.2-11.8-4.3-20.1c3-6.4,8.5-10.5,13.9-10.5c1.5,0,3,0.3,4.3,1  c3.1,1.4,5.2,4.3,6,8.1c0.8,3.7,0.2,8-1.7,12C165.9,79.5,160.4,83.6,154.9,83.6L154.9,83.6z M160.2,58c-3.1,0-6.7,3-8.6,7  c-1.2,2.5-1.6,5.2-1.3,7.5c0.3,2.3,1.3,3.9,2.8,4.6c0.5,0.2,1.1,0.4,1.8,0.4c3.1,0,6.7-3,8.6-7c2.4-5.1,1.7-10.7-1.5-12.2  C161.5,58.1,160.9,58,160.2,58z"
     id="path35"
     style="fill:#ffffff" /><path
     d="M164.3,53.4c-6.1-2.9-13.8,1.2-17.6,9.3c-3.8,8.1-2,16.6,4.1,19.5c6.1,2.9,13.8-1.2,17.6-9.3  C172.2,64.8,170.4,56.3,164.3,53.4L164.3,53.4z M152.9,77.7c-3.4-1.6-4.2-7.5-1.7-12.9c2.5-5.4,7.6-8.5,11-6.9  c3.4,1.6,4.2,7.5,1.7,12.9C161.4,76.1,156.4,79.3,152.9,77.7L152.9,77.7z M152.9,77.7"
     id="path37"
     style="fill:#ffffff" /><path
     d="M81.6,49.1c-1.5,0-3-0.3-4.3-1c-6.3-3-8.2-11.8-4.3-20.1c3-6.4,8.5-10.5,13.9-10.5c1.5,0,3,0.3,4.3,1c3.1,1.4,5.2,4.3,6,8.1  c0.8,3.7,0.2,8-1.7,12C92.5,45,87.1,49.1,81.6,49.1L81.6,49.1z M86.9,23.5c-3.1,0-6.7,3-8.6,7c-2.4,5.1-1.7,10.7,1.5,12.2  c0.5,0.3,1.1,0.4,1.8,0.4c3.1,0,6.7-3,8.6-7c2.4-5.1,1.7-10.7-1.5-12.2C88.1,23.7,87.5,23.5,86.9,23.5z"
     id="path39"
     style="fill:#ffffff" /><path
     d="M95.1,38.4c3.8-8.1,2-16.6-4.1-19.5c-6.1-2.9-13.8,1.2-17.6,9.3c-3.8,8.1-2,16.6,4.1,19.5C83.6,50.6,91.3,46.5,95.1,38.4  L95.1,38.4z M79.6,43.2c-3.4-1.6-4.2-7.5-1.7-12.9c2.5-5.4,7.6-8.5,11-6.9c3.4,1.6,4.2,7.5,1.7,12.9C88.1,41.7,83,44.8,79.6,43.2  L79.6,43.2z M79.6,43.2"
     id="path41"
     style="fill:#ffffff" /></svg>