<?xml version="1.0" encoding="UTF-8" standalone="no"?>
<!-- Generator: Adobe Illustrator 18.0.0, SVG Export Plug-In . SVG Version: 6.00 Build 0)  -->

<svg
   xmlns:dc="http://purl.org/dc/elements/1.1/"
   xmlns:cc="http://creativecommons.org/ns#"
   xmlns:rdf="http://www.w3.org/1999/02/22-rdf-syntax-ns#"
   xmlns:svg="http://www.w3.org/2000/svg"
   xmlns="http://www.w3.org/2000/svg"
   xmlns:sodipodi="http://sodipodi.sourceforge.net/DTD/sodipodi-0.dtd"
   xmlns:inkscape="http://www.inkscape.org/namespaces/inkscape"
   version="1.1"
   id="Слой_1"
   x="0px"
   y="0px"
   viewBox="0 0 1000 1000"
   enable-background="new 0 0 1000 1000"
   xml:space="preserve"
   inkscape:version="0.91 r13725"
   sodipodi:docname="coop3.svg"><metadata
     id="metadata13"><rdf:RDF><cc:Work
         rdf:about=""><dc:format>image/svg+xml</dc:format><dc:type
           rdf:resource="http://purl.org/dc/dcmitype/StillImage" /></cc:Work></rdf:RDF></metadata><defs
     id="defs11" /><sodipodi:namedview
     pagecolor="#ffffff"
     bordercolor="#666666"
     borderopacity="1"
     objecttolerance="10"
     gridtolerance="10"
     guidetolerance="10"
     inkscape:pageopacity="0"
     inkscape:pageshadow="2"
     inkscape:window-width="640"
     inkscape:window-height="480"
     id="namedview9"
     showgrid="false"
     inkscape:zoom="0.236"
     inkscape:cx="666.4954"
     inkscape:cy="500"
     inkscape:window-x="0"
     inkscape:window-y="27"
     inkscape:window-maximized="0"
     inkscape:current-layer="Слой_1" /><g
     id="g3"
     transform="matrix(5.893315,0,0,5.893315,-463.4991,-1558.4684)"
     style="fill:#ffffff"><path
       d="m 247.1,304.8 c 0,-0.1 0,-0.3 0,-0.4 l -9.3,-32.2 c -0.4,-1.4 -1.7,-2.3 -3.1,-2.3 l -142.2,0 c -1.4,0 -2.7,0.9 -3.1,2.3 l -9.3,32.2 c 0,0.1 0,0.2 0,0.4 0,0.2 -0.1,0.3 -0.1,0.5 l 0,32.2 c 0,8.4 5.5,15.6 13.1,18.2 -0.1,0.3 -0.2,0.7 -0.2,1.1 l 0,67.5 c 0,1.8 1.4,3.2 3.2,3.2 l 135.1,0 c 1.8,0 3.2,-1.4 3.2,-3.2 l 0,-67.5 c 0,-0.4 -0.1,-0.7 -0.2,-1.1 7.6,-2.6 13.1,-9.8 13.1,-18.2 l 0,-32.2 c -0.1,-0.1 -0.2,-0.3 -0.2,-0.5 l 0,0 z m -152.2,-28.4 137.4,0 7.4,25.7 -152.2,0 7.4,-25.7 z m 113.7,61.1 c 0,7.1 -5.8,12.8 -12.9,12.8 -7.1,0 -12.9,-5.8 -12.9,-12.8 l 0,-28.9 25.7,0 0,28.9 z m -32.1,0 c 0,7.1 -5.8,12.8 -12.9,12.8 -7.1,0 -12.9,-5.8 -12.9,-12.8 l 0,-28.9 25.7,0 0,28.9 z m -32.2,0 c 0,7.1 -5.8,12.8 -12.9,12.8 -7.1,0 -12.9,-5.8 -12.9,-12.8 l 0,-28.9 25.7,0 0,28.9 z m -57.9,0 0,-28.9 25.7,0 0,28.9 c 0,7.1 -5.8,12.8 -12.9,12.8 -7,0.1 -12.8,-5.7 -12.8,-12.8 l 0,0 z m 29,83.6 0,-51.4 28.9,0 0,51.4 -28.9,0 z m 112.5,0 -77.2,0 0,-54.7 c 0,-1.8 -1.4,-3.2 -3.2,-3.2 l -35.4,0 c -1.8,0 -3.2,1.4 -3.2,3.2 l 0,54.7 -9.6,0 0,-64.3 c 6.7,0 12.6,-3.5 16.1,-8.7 3.5,5.2 9.4,8.7 16.1,8.7 6.7,0 12.6,-3.5 16.1,-8.7 3.5,5.2 9.4,8.7 16.1,8.7 6.7,0 12.6,-3.5 16.1,-8.7 3.5,5.2 9.4,8.7 16.1,8.7 6.7,0 12.6,-3.5 16.1,-8.7 3.5,5.2 9.4,8.7 16.1,8.7 l 0,64.3 z m 12.9,-83.6 c 0,7.1 -5.8,12.8 -12.9,12.8 -7.1,0 -12.9,-5.8 -12.9,-12.8 l 0,-28.9 25.7,0 0,28.9 z m 0,0"
       id="path5"
       inkscape:connector-curvature="0"
       style="fill:#ffffff" /><path
       d="m 157.2,366.5 0,19.3 c 0,1.8 1.4,3.2 3.2,3.2 l 54.7,0 c 1.8,0 3.2,-1.4 3.2,-3.2 l 0,-19.3 c 0,-1.8 -1.4,-3.2 -3.2,-3.2 l -54.7,0 c -1.8,-0.1 -3.2,1.4 -3.2,3.2 l 0,0 z m 6.4,3.2 48.2,0 0,12.9 -48.2,0 0,-12.9 z m 0,0"
       id="path7"
       inkscape:connector-curvature="0"
       style="fill:#ffffff" /></g></svg>