<?xml version="1.0" encoding="UTF-8" standalone="no"?>
<!-- Generator: Adobe Illustrator 18.0.0, SVG Export Plug-In . SVG Version: 6.00 Build 0)  -->

<svg
   xmlns:dc="http://purl.org/dc/elements/1.1/"
   xmlns:cc="http://creativecommons.org/ns#"
   xmlns:rdf="http://www.w3.org/1999/02/22-rdf-syntax-ns#"
   xmlns:svg="http://www.w3.org/2000/svg"
   xmlns="http://www.w3.org/2000/svg"
   xmlns:sodipodi="http://sodipodi.sourceforge.net/DTD/sodipodi-0.dtd"
   xmlns:inkscape="http://www.inkscape.org/namespaces/inkscape"
   version="1.1"
   id="Слой_1"
   x="0px"
   y="0px"
   viewBox="0 0 183.5 159.1"
   enable-background="new 0 0 183.5 159.1"
   xml:space="preserve"
   inkscape:version="0.91 r13725"
   sodipodi:docname="coop1.svg"><metadata
     id="metadata11"><rdf:RDF><cc:Work
         rdf:about=""><dc:format>image/svg+xml</dc:format><dc:type
           rdf:resource="http://purl.org/dc/dcmitype/StillImage" /></cc:Work></rdf:RDF></metadata><defs
     id="defs9" /><sodipodi:namedview
     pagecolor="#ffffff"
     bordercolor="#666666"
     borderopacity="1"
     objecttolerance="10"
     gridtolerance="10"
     guidetolerance="10"
     inkscape:pageopacity="0"
     inkscape:pageshadow="2"
     inkscape:window-width="640"
     inkscape:window-height="480"
     id="namedview7"
     showgrid="false"
     inkscape:zoom="1.4833438"
     inkscape:cx="91.75"
     inkscape:cy="79.550003"
     inkscape:window-x="0"
     inkscape:window-y="27"
     inkscape:window-maximized="0"
     inkscape:current-layer="Слой_1" /><g
     id="g3"
     style="fill:#ffffff"><path
       d="M180.5,85.6h-9.2V27.5c0-1.8-1.2-3.1-3.1-3.1H104V3.1c0-1.8-1.2-3.1-3.1-3.1H27.5c-1.8,0-3.1,1.2-3.1,3.1v64.2H3.1   c-1.8,0-3.1,1.2-3.1,3V156c0,1.8,1.2,3.1,3.1,3.1h177.4c1.8,0,3.1-1.2,3.1-3.1V88.7C183.5,86.9,182.3,85.6,180.5,85.6L180.5,85.6z    M140.7,30.6v18.4h-12.2V30.6H140.7z M122.4,30.6V52c0,1.8,1.2,3,3.1,3h18.4c1.8,0,3-1.2,3-3V30.6h18.4v55.1H104V30.6H122.4z    M134.6,91.8h12.2v18.4h-12.2V91.8z M70.3,6.1v18.3H58.1V6.1H70.3z M30.6,6.1H52v21.4c0,1.8,1.2,3.1,3,3.1h18.4   c1.8,0,3.1-1.2,3.1-3.1V6.1h21.4v61.2H30.6V6.1z M42.8,73.4h18.4v24.5H42.8V73.4z M6.1,73.4h30.6v27.5c0,1.8,1.2,3.1,3,3.1h24.5   c1.8,0,3.1-1.2,3.1-3.1V73.4h30.6v79.5H6.1V73.4z M177.4,152.9H104V91.8h24.5v21.4c0,1.8,1.2,3,3,3h18.4c1.8,0,3.1-1.2,3.1-3V91.8   h24.5V152.9z M177.4,152.9"
       id="path5"
       style="fill:#ffffff" /></g></svg>