<?xml version="1.0" encoding="utf-8"?>
<!-- Generator: Adobe Illustrator 18.0.0, SVG Export Plug-In . SVG Version: 6.00 Build 0)  -->
<!DOCTYPE svg PUBLIC "-//W3C//DTD SVG 1.1//EN" "http://www.w3.org/Graphics/SVG/1.1/DTD/svg11.dtd">
<svg version="1.1" id="Слой_1" xmlns="http://www.w3.org/2000/svg" xmlns:xlink="http://www.w3.org/1999/xlink" x="0px" y="0px"
	 viewBox="0 0 1000 1000" enable-background="new 0 0 1000 1000" xml:space="preserve">
<g>
	<path d="M247.1,304.8c0-0.1,0-0.3,0-0.4l-9.3-32.2c-0.4-1.4-1.7-2.3-3.1-2.3H92.5c-1.4,0-2.7,0.9-3.1,2.3l-9.3,32.2
		c0,0.1,0,0.2,0,0.4c0,0.2-0.1,0.3-0.1,0.5v32.2c0,8.4,5.5,15.6,13.1,18.2c-0.1,0.3-0.2,0.7-0.2,1.1v67.5c0,1.8,1.4,3.2,3.2,3.2
		h135.1c1.8,0,3.2-1.4,3.2-3.2v-67.5c0-0.4-0.1-0.7-0.2-1.1c7.6-2.6,13.1-9.8,13.1-18.2v-32.2C247.2,305.2,247.1,305,247.1,304.8
		L247.1,304.8z M94.9,276.4h137.4l7.4,25.7H87.5L94.9,276.4z M208.6,337.5c0,7.1-5.8,12.8-12.9,12.8c-7.1,0-12.9-5.8-12.9-12.8
		v-28.9h25.7V337.5z M176.5,337.5c0,7.1-5.8,12.8-12.9,12.8c-7.1,0-12.9-5.8-12.9-12.8v-28.9h25.7V337.5z M144.3,337.5
		c0,7.1-5.8,12.8-12.9,12.8c-7.1,0-12.9-5.8-12.9-12.8v-28.9h25.7V337.5z M86.4,337.5v-28.9h25.7v28.9c0,7.1-5.8,12.8-12.9,12.8
		C92.2,350.4,86.4,344.6,86.4,337.5L86.4,337.5z M115.4,421.1v-51.4h28.9v51.4H115.4z M227.9,421.1h-77.2v-54.7
		c0-1.8-1.4-3.2-3.2-3.2h-35.4c-1.8,0-3.2,1.4-3.2,3.2v54.7h-9.6v-64.3c6.7,0,12.6-3.5,16.1-8.7c3.5,5.2,9.4,8.7,16.1,8.7
		c6.7,0,12.6-3.5,16.1-8.7c3.5,5.2,9.4,8.7,16.1,8.7c6.7,0,12.6-3.5,16.1-8.7c3.5,5.2,9.4,8.7,16.1,8.7c6.7,0,12.6-3.5,16.1-8.7
		c3.5,5.2,9.4,8.7,16.1,8.7V421.1z M240.8,337.5c0,7.1-5.8,12.8-12.9,12.8c-7.1,0-12.9-5.8-12.9-12.8v-28.9h25.7V337.5z
		 M240.8,337.5"/>
	<path d="M157.2,366.5v19.3c0,1.8,1.4,3.2,3.2,3.2h54.7c1.8,0,3.2-1.4,3.2-3.2v-19.3c0-1.8-1.4-3.2-3.2-3.2h-54.7
		C158.6,363.2,157.2,364.7,157.2,366.5L157.2,366.5z M163.6,369.7h48.2v12.9h-48.2V369.7z M163.6,369.7"/>
</g>
</svg>
