<?xml version="1.0" encoding="UTF-8" standalone="no"?>
<!-- Generator: Adobe Illustrator 18.0.0, SVG Export Plug-In . SVG Version: 6.00 Build 0)  -->

<svg
   xmlns:dc="http://purl.org/dc/elements/1.1/"
   xmlns:cc="http://creativecommons.org/ns#"
   xmlns:rdf="http://www.w3.org/1999/02/22-rdf-syntax-ns#"
   xmlns:svg="http://www.w3.org/2000/svg"
   xmlns="http://www.w3.org/2000/svg"
   xmlns:sodipodi="http://sodipodi.sourceforge.net/DTD/sodipodi-0.dtd"
   xmlns:inkscape="http://www.inkscape.org/namespaces/inkscape"
   version="1.1"
   id="Слой_1"
   x="0px"
   y="0px"
   viewBox="0 0 24.8 17.6"
   enable-background="new 0 0 24.8 17.6"
   xml:space="preserve"
   inkscape:version="0.91 r13725"
   sodipodi:docname="footer-3.svg"><metadata
     id="metadata17"><rdf:RDF><cc:Work
         rdf:about=""><dc:format>image/svg+xml</dc:format><dc:type
           rdf:resource="http://purl.org/dc/dcmitype/StillImage" /></cc:Work></rdf:RDF></metadata><defs
     id="defs15" /><sodipodi:namedview
     pagecolor="#ffffff"
     bordercolor="#666666"
     borderopacity="1"
     objecttolerance="10"
     gridtolerance="10"
     guidetolerance="10"
     inkscape:pageopacity="0"
     inkscape:pageshadow="2"
     inkscape:window-width="640"
     inkscape:window-height="480"
     id="namedview13"
     showgrid="false"
     inkscape:zoom="12.016129"
     inkscape:cx="12.4"
     inkscape:cy="8.8000002"
     inkscape:window-x="0"
     inkscape:window-y="27"
     inkscape:window-maximized="0"
     inkscape:current-layer="Слой_1" /><g
     id="g3"
     style="fill:#ffffff"><path
       d="M20.1,13.6c-0.1,0-0.2,0-0.3-0.1l-4.6-4.3c-0.2-0.2-0.2-0.4,0-0.6c0.2-0.2,0.4-0.2,0.6,0l4.6,4.3c0.2,0.2,0.2,0.4,0,0.6   C20.3,13.6,20.2,13.6,20.1,13.6L20.1,13.6z M20.1,13.6"
       id="path5"
       style="fill:#ffffff" /><path
       d="M4.7,13.6c-0.1,0-0.2,0-0.3-0.1c-0.2-0.2-0.1-0.4,0-0.6l4.6-4.3c0.2-0.2,0.4-0.1,0.6,0c0.2,0.2,0.1,0.4,0,0.6L5,13.5   C4.9,13.6,4.8,13.6,4.7,13.6L4.7,13.6z M4.7,13.6"
       id="path7"
       style="fill:#ffffff" /><path
       d="M22.8,17.6H2c-1.1,0-2-0.9-2-2V2c0-1.1,0.9-2,2-2h20.8c1.1,0,2,0.9,2,2v13.6C24.8,16.7,23.9,17.6,22.8,17.6L22.8,17.6z    M2,0.8C1.3,0.8,0.8,1.3,0.8,2v13.6c0,0.7,0.5,1.2,1.2,1.2h20.8c0.7,0,1.2-0.5,1.2-1.2V2c0-0.7-0.5-1.2-1.2-1.2H2z M2,0.8"
       id="path9"
       style="fill:#ffffff" /><path
       d="M12.4,10.8c-0.5,0-1.1-0.2-1.5-0.5l-10.3-9c-0.2-0.1-0.2-0.4,0-0.6c0.1-0.2,0.4-0.2,0.6,0l10.3,9c0.5,0.4,1.4,0.4,1.9,0   l10.3-8.9c0.2-0.1,0.4-0.1,0.6,0c0.1,0.2,0.1,0.4,0,0.6l-10.3,8.9C13.5,10.7,12.9,10.8,12.4,10.8L12.4,10.8z M12.4,10.8"
       id="path11"
       style="fill:#ffffff" /></g></svg>