<?xml version="1.0" encoding="UTF-8" standalone="no"?>
<!-- Generator: Adobe Illustrator 18.0.0, SVG Export Plug-In . SVG Version: 6.00 Build 0)  -->

<svg
   xmlns:dc="http://purl.org/dc/elements/1.1/"
   xmlns:cc="http://creativecommons.org/ns#"
   xmlns:rdf="http://www.w3.org/1999/02/22-rdf-syntax-ns#"
   xmlns:svg="http://www.w3.org/2000/svg"
   xmlns="http://www.w3.org/2000/svg"
   xmlns:xlink="http://www.w3.org/1999/xlink"
   xmlns:sodipodi="http://sodipodi.sourceforge.net/DTD/sodipodi-0.dtd"
   xmlns:inkscape="http://www.inkscape.org/namespaces/inkscape"
   version="1.1"
   id="Слой_1"
   x="0px"
   y="0px"
   viewBox="0 0 24 25"
   enable-background="new 0 0 24 25"
   xml:space="preserve"
   inkscape:version="0.91 r13725"
   sodipodi:docname="footer-2.svg"><metadata
     id="metadata19"><rdf:RDF><cc:Work
         rdf:about=""><dc:format>image/svg+xml</dc:format><dc:type
           rdf:resource="http://purl.org/dc/dcmitype/StillImage" /></cc:Work></rdf:RDF></metadata><defs
     id="defs17" /><sodipodi:namedview
     pagecolor="#ffffff"
     bordercolor="#666666"
     borderopacity="1"
     objecttolerance="10"
     gridtolerance="10"
     guidetolerance="10"
     inkscape:pageopacity="0"
     inkscape:pageshadow="2"
     inkscape:window-width="771"
     inkscape:window-height="585"
     id="namedview15"
     showgrid="false"
     inkscape:zoom="9.44"
     inkscape:cx="12"
     inkscape:cy="12.5"
     inkscape:window-x="0"
     inkscape:window-y="50"
     inkscape:window-maximized="0"
     inkscape:current-layer="g5" /><g
     id="g3"
     style="fill:#ffffff"><g
       id="g5"
       style="fill:#800080"><defs
         id="defs7"><rect
           id="SVGID_1_"
           width="24"
           height="25" /></defs><clipPath
         id="SVGID_2_"><use
           xlink:href="#SVGID_1_"
           overflow="visible"
           id="use11" /></clipPath><path
         clip-path="url(#SVGID_2_)"
         d="M19.1,24c-1,0-2.2-0.3-3.5-0.7c-2.9-1.1-6-3.2-8.8-6c-2.8-2.8-5-5.9-6-8.8c-1-2.6-1-4.8,0-5.8    C0.9,2.5,1,2.3,1.2,2.2c0.9-0.9,1.9-2,3.3-2c0.9,0,1.8,0.6,2.7,1.8c2.7,3.4,1.5,4.6,0.1,6L7,8.2c-0.2,0.2-0.7,1.3,3.4,5.4    c1.3,1.3,2.5,2.3,3.4,2.9c0.6,0.4,1.6,0.9,2,0.5l0.3-0.3c1.4-1.4,2.6-2.6,6,0.1c1.1,0.9,1.7,1.8,1.8,2.7c0.1,1.3-1,2.4-2,3.3    c-0.2,0.1-0.3,0.3-0.4,0.4C20.9,23.8,20.1,24,19.1,24L19.1,24z M4.3,1c-1,0-1.8,0.9-2.6,1.7C1.6,2.9,1.4,3,1.3,3.2    C0.6,3.9,0.6,5.9,1.5,8.1c1,2.8,3.1,5.8,5.9,8.5c2.7,2.7,5.8,4.8,8.5,5.9c2.3,0.8,4.2,0.9,4.9,0.2c0.1-0.1,0.3-0.3,0.5-0.4    c0.8-0.8,1.8-1.7,1.7-2.6c0-0.7-0.5-1.4-1.5-2.2c-2.8-2.3-3.6-1.5-4.9-0.1l-0.3,0.3c-0.6,0.6-1.6,0.5-3-0.4c-1-0.6-2.1-1.6-3.5-3    c-3.4-3.4-4.5-5.5-3.4-6.5l0.3-0.2C8,6.1,8.8,5.3,6.6,2.5C5.8,1.5,5.1,1,4.3,1C4.4,1,4.4,1,4.3,1L4.3,1z M4.3,1"
         id="path13"
         style="fill:#ffffff;fill-opacity:1" /></g></g></svg>
