<?xml version="1.0" encoding="UTF-8" standalone="no"?>
<!-- Generator: Adobe Illustrator 18.0.0, SVG Export Plug-In . SVG Version: 6.00 Build 0)  -->

<svg
   xmlns:dc="http://purl.org/dc/elements/1.1/"
   xmlns:cc="http://creativecommons.org/ns#"
   xmlns:rdf="http://www.w3.org/1999/02/22-rdf-syntax-ns#"
   xmlns:svg="http://www.w3.org/2000/svg"
   xmlns="http://www.w3.org/2000/svg"
   xmlns:sodipodi="http://sodipodi.sourceforge.net/DTD/sodipodi-0.dtd"
   xmlns:inkscape="http://www.inkscape.org/namespaces/inkscape"
   version="1.1"
   id="Слой_1"
   x="0px"
   y="0px"
   viewBox="0 0 26.3 26.4"
   enable-background="new 0 0 26.3 26.4"
   xml:space="preserve"
   inkscape:version="0.91 r13725"
   sodipodi:docname="footer-1.svg"><metadata
     id="metadata15"><rdf:RDF><cc:Work
         rdf:about=""><dc:format>image/svg+xml</dc:format><dc:type
           rdf:resource="http://purl.org/dc/dcmitype/StillImage" /></cc:Work></rdf:RDF></metadata><defs
     id="defs13" /><sodipodi:namedview
     pagecolor="#ffffff"
     bordercolor="#666666"
     borderopacity="1"
     objecttolerance="10"
     gridtolerance="10"
     guidetolerance="10"
     inkscape:pageopacity="0"
     inkscape:pageshadow="2"
     inkscape:window-width="755"
     inkscape:window-height="551"
     id="namedview11"
     showgrid="false"
     inkscape:zoom="8.9393941"
     inkscape:cx="13.15"
     inkscape:cy="13.2"
     inkscape:window-x="0"
     inkscape:window-y="27"
     inkscape:window-maximized="0"
     inkscape:current-layer="Слой_1" /><g
     id="g3"
     style="fill:#ffffff"><path
       d="M13.2,10.5c-1.9,0-3.4-1.5-3.4-3.4c0-1.9,1.5-3.4,3.4-3.4c1.9,0,3.4,1.5,3.4,3.4C16.5,9,15,10.5,13.2,10.5L13.2,10.5z    M13.2,4.6c-1.4,0-2.6,1.2-2.6,2.6c0,1.4,1.2,2.6,2.6,2.6c1.4,0,2.6-1.2,2.6-2.6C15.7,5.7,14.6,4.6,13.2,4.6L13.2,4.6z M13.2,4.6"
       id="path5"
       style="fill:#ffffff" /><path
       d="M13.2,19.4c-0.1,0-0.2,0-0.3-0.1C12.6,18.9,6,11,6,7.2C6,3.2,9.2,0,13.2,0c3.9,0,7.2,3.2,7.2,7.2c0,3.8-6.6,11.7-6.9,12.1   C13.4,19.3,13.3,19.4,13.2,19.4L13.2,19.4z M13.2,0.8c-3.5,0-6.4,2.9-6.4,6.4c0,3.1,5,9.5,6.4,11.2c1.3-1.6,6.4-8.1,6.4-11.2   C19.5,3.7,16.7,0.8,13.2,0.8L13.2,0.8z M13.2,0.8"
       id="path7"
       style="fill:#ffffff" /><path
       d="M25.9,26.4H0.4C0.2,26.4,0,26.2,0,26V9.7c0-0.2,0.2-0.4,0.4-0.4H7c0.2,0,0.4,0.2,0.4,0.4c0,0.2-0.2,0.4-0.4,0.4H0.8v15.5   h24.7V10.1h-6.2c-0.2,0-0.4-0.2-0.4-0.4c0-0.2,0.2-0.4,0.4-0.4h6.6c0.2,0,0.4,0.2,0.4,0.4V26C26.3,26.2,26.1,26.4,25.9,26.4   L25.9,26.4z M25.9,26.4"
       id="path9"
       style="fill:#ffffff" /></g></svg>