<?xml version="1.0" encoding="UTF-8" standalone="no"?>
<!-- Generator: Adobe Illustrator 18.0.0, SVG Export Plug-In . SVG Version: 6.00 Build 0)  -->

<svg
   xmlns:dc="http://purl.org/dc/elements/1.1/"
   xmlns:cc="http://creativecommons.org/ns#"
   xmlns:rdf="http://www.w3.org/1999/02/22-rdf-syntax-ns#"
   xmlns:svg="http://www.w3.org/2000/svg"
   xmlns="http://www.w3.org/2000/svg"
   xmlns:sodipodi="http://sodipodi.sourceforge.net/DTD/sodipodi-0.dtd"
   xmlns:inkscape="http://www.inkscape.org/namespaces/inkscape"
   version="1.1"
   id="Layer_1"
   x="0px"
   y="0px"
   viewBox="21.1 141 371.8 512"
   enable-background="new 21.1 141 371.8 512"
   xml:space="preserve"
   inkscape:version="0.91 r13725"
   sodipodi:docname="header-lock_open.svg"><metadata
     id="metadata11"><rdf:RDF><cc:Work
         rdf:about=""><dc:format>image/svg+xml</dc:format><dc:type
           rdf:resource="http://purl.org/dc/dcmitype/StillImage" /></cc:Work></rdf:RDF></metadata><defs
     id="defs9" /><sodipodi:namedview
     pagecolor="#ffffff"
     bordercolor="#666666"
     borderopacity="1"
     objecttolerance="10"
     gridtolerance="10"
     guidetolerance="10"
     inkscape:pageopacity="0"
     inkscape:pageshadow="2"
     inkscape:window-width="640"
     inkscape:window-height="480"
     id="namedview7"
     showgrid="false"
     inkscape:zoom="0.4609375"
     inkscape:cx="185.89999"
     inkscape:cy="256"
     inkscape:window-x="0"
     inkscape:window-y="27"
     inkscape:window-maximized="0"
     inkscape:current-layer="Layer_1" /><path
     d="M207,417.7c-28,0-50.8,22.8-50.8,50.8c0,13.9,5.8,27.3,15.9,36.9v45.9c0,19.3,15.7,35,35,35s35-15.7,35-35v-45.9  c10.1-9.6,15.9-23,15.9-36.9C257.8,440.5,235,417.7,207,417.7z M225,487.6c-4.9,4.6-7.6,11-7.6,17.5v46.2c0,5.7-4.6,10.3-10.3,10.3  c-5.7,0-10.3-4.6-10.3-10.3v-46.2c0-6.6-2.8-13-7.6-17.5c-5.3-5-8.2-11.8-8.2-19.1c0-14.4,11.8-26.2,26.2-26.2s26.2,11.8,26.2,26.2  C233.2,475.8,230.3,482.6,225,487.6z"
     id="path3"
     style="fill:#ff5130" /><path
     d="M356,350.9h-36.9l-7.4-0.1c-0.9,0.1-6,0-13.3,0l-3.9,0.1H119.5v-97.8c0-48.2,39.2-87.5,87.5-87.5  c48.2,0,87.5,39.2,87.5,87.5v22.4c8.2-0.2,16.3,0.3,24.5,0.2l0.1-22.7c0-61.8-50.3-112.1-112.1-112.1  c-61.8,0-112.1,50.3-112.1,112.1v97.8H58c-20.4,0-36.9,16.6-36.9,36.9v228.3c0,20.4,16.6,36.9,36.9,36.9h298  c20.4,0,36.9-16.6,36.9-36.9V387.8C392.9,367.4,376.3,350.9,356,350.9z M368.3,616.1L368.3,616.1c0,6.8-5.5,12.3-12.3,12.3H58  c-6.8,0-12.3-5.5-12.3-12.3V387.8c0-6.8,5.5-12.3,12.3-12.3h298c6.8,0,12.3,5.5,12.3,12.3V616.1z"
     id="path5"
     style="fill:#ff5130" /></svg>
