<?xml version="1.0" encoding="UTF-8" standalone="no"?>
<!-- Generator: Adobe Illustrator 18.0.0, SVG Export Plug-In . SVG Version: 6.00 Build 0)  -->

<svg
   xmlns:dc="http://purl.org/dc/elements/1.1/"
   xmlns:cc="http://creativecommons.org/ns#"
   xmlns:rdf="http://www.w3.org/1999/02/22-rdf-syntax-ns#"
   xmlns:svg="http://www.w3.org/2000/svg"
   xmlns="http://www.w3.org/2000/svg"
   xmlns:sodipodi="http://sodipodi.sourceforge.net/DTD/sodipodi-0.dtd"
   xmlns:inkscape="http://www.inkscape.org/namespaces/inkscape"
   version="1.1"
   id="Слой_1"
   x="0px"
   y="0px"
   viewBox="0 0 154 186.1"
   enable-background="new 0 0 154 186.1"
   xml:space="preserve"
   inkscape:version="0.91 r13725"
   sodipodi:docname="like-gray.svg"><metadata
     id="metadata9"><rdf:RDF><cc:Work
         rdf:about=""><dc:format>image/svg+xml</dc:format><dc:type
           rdf:resource="http://purl.org/dc/dcmitype/StillImage" /></cc:Work></rdf:RDF></metadata><defs
     id="defs7" /><sodipodi:namedview
     pagecolor="#ffffff"
     bordercolor="#666666"
     borderopacity="1"
     objecttolerance="10"
     gridtolerance="10"
     guidetolerance="10"
     inkscape:pageopacity="0"
     inkscape:pageshadow="2"
     inkscape:window-width="775"
     inkscape:window-height="480"
     id="namedview5"
     showgrid="false"
     inkscape:zoom="1.2681354"
     inkscape:cx="77"
     inkscape:cy="93.050003"
     inkscape:window-x="0"
     inkscape:window-y="27"
     inkscape:window-maximized="0"
     inkscape:current-layer="Слой_1" /><path
     d="M148.3,102.9c5.4-6.9,7.3-17.7,4.2-26.6c-3.1-9-10.7-14.4-20.3-14.4H93c-0.1,0-0.3,0-0.4-0.2c-0.1-0.2-0.1-0.3,0-0.5  c5.4-9.7,9.1-20.3,11.9-29.4c2.6-8.2,1.4-16.5-3.2-22.8c-4.1-5.6-10.7-9-17.6-9c-8,0-15.5,4.4-20.5,12.2  c-3.9,6.1-7.3,12.4-10.6,18.4C47.6,40,42.8,48.9,37.5,54c-4.2,4-16.5,12-23.9,16.7c-2.6,1.7-5,3.2-6.7,4.3c-3,2-6.9,4.6-6.9,9.9  v63.9c0,6.6,4.8,12.1,11.3,13.1l21.8,3.3c21.1,13.6,41.4,20.8,58.9,20.8c4.9,0,9.5-0.6,13.9-1.6c10.4-2.6,17.8-7.5,22-14.5  c2.6-4.4,3.6-8.8,3.7-12.5c3.8-2.1,6.9-5.4,8.8-9.6c2.9-6.3,2.9-13.3,1.5-19C149.2,122.2,150.5,111,148.3,102.9L148.3,102.9z   M133.3,123.4c-1.7,0.9-2.5,3-1.7,4.8c3,6.3,2.6,19.3-7,21.8c-1.8,0.5-3,2.2-2.7,4c0.7,5.7-0.4,16.7-18.3,21.2  c-3.6,0.9-7.5,1.4-11.6,1.4c-15.3,0-34-6.3-54.7-20c-0.4-0.3-0.9-0.5-1.4-0.6l-23.1-3.5c-1.8-0.3-3.2-1.8-3.2-3.6V85  c0-1,26.7-16.5,34.5-24.1c9.9-9.6,17-27.7,27.2-43.5c3.5-5.5,8.2-7.8,12.5-7.8c8.1,0,15.1,8.2,11.6,19.3  c-3.2,10.2-6.6,19.4-11.1,27.6c-3.7,6.7,1.1,15,8.8,15h39.2c15.1,0,14.7,21.1,6.8,27.2c-1.3,1.1-1.7,2.9-0.9,4.5  C140.9,108.4,140.4,119.6,133.3,123.4L133.3,123.4z M133.3,123.4"
     id="path3"
     style="fill:#686868;fill-opacity:1" /></svg>