<?xml version="1.0" encoding="utf-8"?>
<!-- Generator: Adobe Illustrator 18.0.0, SVG Export Plug-In . SVG Version: 6.00 Build 0)  -->
<!DOCTYPE svg PUBLIC "-//W3C//DTD SVG 1.1//EN" "http://www.w3.org/Graphics/SVG/1.1/DTD/svg11.dtd">
<svg version="1.1" id="Слой_1" xmlns="http://www.w3.org/2000/svg" xmlns:xlink="http://www.w3.org/1999/xlink" x="0px" y="0px"
	 viewBox="0 0 544 201.2" enable-background="new 0 0 544 201.2" xml:space="preserve">
<g>
	<path fill="#E0552F" d="M233,17.3c0,11-8.5,16.9-20.1,16.9h-10.1v13.7h-11.3V1h22.2C225.5,1,233,7.1,233,17.3z M213.1,10.8h-10.3
		v14.1h10.4c5.2,0,8.1-2.3,8.1-7C221.3,13.3,218.3,10.8,213.1,10.8z"/>
	<path fill="#E0552F" d="M273.4,28.9h-20.6v9.2h25.9v9.8h-37.2V1h37.2v9.8h-25.9V20h20.6V28.9z"/>
	<path fill="#E0552F" d="M286.5,1h40.8v9.8h-14.7v37.1h-11.3V10.8h-14.8V1z"/>
	<path fill="#E0552F" d="M339.4,34c0,0,6.8,4.5,13.7,4.5c4.3,0,5.9-1.8,5.9-3.9c0-2.4-1.6-3.7-8.7-5.6c-10.3-2.9-16.2-6.7-16.2-14.4
		C334,6,340.1,0,352.9,0c13.1,0,18.3,5,18.3,5l-6.1,9.2c0,0-5.1-3.9-12.2-3.9c-4.5,0-5.8,1.5-5.8,3.4c0,2.3,2.2,3.3,8.1,4.8
		c11,2.9,17,6.9,17,14.8c0,8.5-5.9,15.5-18.8,15.5c-13.4,0-20.1-6.2-20.1-6.2L339.4,34z"/>
	<path fill="#E0552F" d="M233,75c0,11-8.5,16.9-20.1,16.9h-10.1v13.7h-11.3V58.7h22.2C225.5,58.7,233,64.8,233,75z M213.1,68.5
		h-10.3v14.1h10.4c5.2,0,8.1-2.3,8.1-7C221.3,71,218.3,68.5,213.1,68.5z"/>
	<path fill="#E0552F" d="M241.5,58.7h22.1c11.9,0,19.4,6.1,19.4,16.3c0,6.6-3,11.2-7.8,14v1l10.5,14.8v0.8h-12.9l-9.2-13.7h-10.9
		v13.7h-11.3V58.7z M263.1,68.5h-10.3v14.1h10.4c5.2,0,8.1-2.3,8.1-7C271.3,71,268.3,68.5,263.1,68.5z"/>
	<path fill="#E0552F" d="M292.3,82.1c0-13.4,9.4-24.4,25-24.4c15.7,0,25.1,11,25.1,24.4c0,13.4-9.4,24.4-25.1,24.4
		C301.8,106.6,292.3,95.5,292.3,82.1z M330.7,82.1c0-8.1-5.9-13.5-13.4-13.5c-7.4,0-13.3,5.4-13.3,13.5c0,8.1,5.9,13.5,13.3,13.5
		C324.9,95.6,330.7,90.2,330.7,82.1z"/>
	<path fill="#E0552F" d="M370.4,105.5H351V58.7h19.4c15.6,0,24.8,10,24.8,23.4C395.3,95.5,386,105.5,370.4,105.5z M362.3,68.5v27.3
		h7.3c8.1,0,14-4.6,14-13.7c0-9.1-5.9-13.7-14-13.7H362.3z"/>
	<path fill="#E0552F" d="M403.5,85.3V58.7h11.3v26.6c0,5.4,3.4,10.3,10.2,10.3c7,0,10.2-4.8,10.2-10.3V58.7h11.3v26.6
		c0,12.1-8,21.2-21.5,21.2C411.9,106.6,403.5,97.4,403.5,85.3z"/>
	<path fill="#E0552F" d="M496.4,100.9c0,0-5.2,5.7-16.7,5.7c-15.7,0-25.1-11-25.1-24.4c0-13.4,9.4-24.4,25.1-24.4
		c11.6,0,16.7,5.7,16.7,5.7l-6.5,8.7c0,0-4.8-3.5-10.1-3.5c-8,0-13.6,5.5-13.6,13.6c0,8.1,5.6,13.6,13.6,13.6
		c6.6,0,10.1-3.5,10.1-3.5L496.4,100.9z"/>
	<path fill="#E0552F" d="M503.2,58.7H544v9.8h-14.7v37.1H518V68.5h-14.8V58.7z"/>
	<path fill="#3E3E3D" d="M159.4,1.8c-1.7-1-3.7-1.1-5.4-0.2L81,39.2L8.1,1.6C6.4,0.7,4.3,0.8,2.7,1.8C1,2.8,0,4.6,0,6.6v75.9v1v76.1
		c0,2.1,1.2,4.1,3.2,5l75.5,36.1c0,0,0.1,0,0.1,0c0.2,0.1,0.4,0.1,0.6,0.2c0.1,0,0.2,0.1,0.3,0.1c0.1,0,0.1,0,0.2,0.1
		c0.3,0.1,0.6,0.1,0.9,0.1c0.1,0,0.2,0,0.2,0c0,0,0,0,0,0s0,0,0,0c0.1,0,0.2,0,0.2,0c0.3,0,0.6,0,0.9-0.1c0.1,0,0.1,0,0.2-0.1
		c0.1,0,0.2-0.1,0.3-0.1c0.2-0.1,0.4-0.1,0.6-0.2c0,0,0.1,0,0.1,0l75.5-36.1c1.9-0.9,3.2-2.9,3.2-5V83.5v-1V6.6
		C162,4.6,161,2.8,159.4,1.8z M81,112.4L17.5,82L35,73.7l0,0l46-22L144.5,82L81,112.4z M150.9,72.8l-19.1-9.1l0,0L93.5,45.3
		l57.4-29.6V72.8z M68.5,45.3L11.1,72.8V15.7L68.5,45.3z M11.1,91.3l64.3,30.8v64.8l-64.3-30.8V91.3z M150.9,156.1l-64.3,30.8v-64.8
		l64.3-30.8V156.1z"/>
	<path fill="#3E3E3D" d="M225.2,146.7c4.8-2.7,7.8-7.4,7.8-14c0-10.2-7.6-16.3-19.4-16.3h-22.1v46.9h11.3v-13.7h10.9l9.2,13.7h12.9
		v-0.8l-10.5-14.8V146.7z M213.1,140.2h-10.4v-14.1h10.3c5.2,0,8.2,2.5,8.2,7C221.3,137.8,218.4,140.2,213.1,140.2z"/>
	<path fill="#3E3E3D" d="M273.2,116.4V143c0,5.5-3.1,10.3-10.2,10.3c-6.9,0-10.2-4.9-10.2-10.3v-26.6h-11.3V143
		c0,12.1,8.4,21.2,21.6,21.2c13.4,0,21.5-9.1,21.5-21.2v-26.6H273.2z"/>
</g>
</svg>
