<?xml version="1.0" encoding="UTF-8" standalone="no"?>
<!-- Generator: Adobe Illustrator 18.0.0, SVG Export Plug-In . SVG Version: 6.00 Build 0)  -->

<svg
   xmlns:dc="http://purl.org/dc/elements/1.1/"
   xmlns:cc="http://creativecommons.org/ns#"
   xmlns:rdf="http://www.w3.org/1999/02/22-rdf-syntax-ns#"
   xmlns:svg="http://www.w3.org/2000/svg"
   xmlns="http://www.w3.org/2000/svg"
   xmlns:sodipodi="http://sodipodi.sourceforge.net/DTD/sodipodi-0.dtd"
   xmlns:inkscape="http://www.inkscape.org/namespaces/inkscape"
   version="1.1"
   id="Слой_1"
   x="0px"
   y="0px"
   viewBox="0 0 58.2 37"
   enable-background="new 0 0 58.2 37"
   xml:space="preserve"
   inkscape:version="0.91 r13725"
   sodipodi:docname="social-gplus_hover.svg"><metadata
     id="metadata15"><rdf:RDF><cc:Work
         rdf:about=""><dc:format>image/svg+xml</dc:format><dc:type
           rdf:resource="http://purl.org/dc/dcmitype/StillImage" /></cc:Work></rdf:RDF></metadata><defs
     id="defs13" /><sodipodi:namedview
     pagecolor="#ffffff"
     bordercolor="#666666"
     borderopacity="1"
     objecttolerance="10"
     gridtolerance="10"
     guidetolerance="10"
     inkscape:pageopacity="0"
     inkscape:pageshadow="2"
     inkscape:window-width="775"
     inkscape:window-height="480"
     id="namedview11"
     showgrid="false"
     inkscape:zoom="5.1202748"
     inkscape:cx="29.1"
     inkscape:cy="18.5"
     inkscape:window-x="0"
     inkscape:window-y="27"
     inkscape:window-maximized="0"
     inkscape:current-layer="Слой_1" /><path
     fill="#DC4E41"
     d="M0,18.5C-0.1,26.3,5.2,33.6,12.5,36c6.9,2.3,15.4,0.6,19.9-5.3c3.3-4.1,4.1-9.6,3.7-14.8  c-5.9-0.1-11.8,0-17.7,0c0,2.1,0,4.2,0,6.3c3.5,0.1,7.1,0.1,10.6,0.1c-0.9,3.1-2.9,5.9-6,7c-6,2.6-13.6-0.8-15.4-7.1  c-2.3-6,1.4-13.2,7.6-14.9C19,6,22.9,7.5,26.2,9.5c1.6-1.5,3.2-3.2,4.7-4.8c-3.7-3.1-8.4-5-13.3-4.6C8,0.2-0.4,9,0,18.5L0,18.5z   M0,18.5"
     id="path3" /><path
     fill="#DC4E41"
     d="M47.7,10.6c0,1.8,0,3.5,0,5.3c-1.8,0-3.5,0-5.3,0v5.3c1.8,0,3.5,0,5.3,0c0,1.8,0,3.5,0,5.3  c1.8,0,3.5,0,5.3,0c0-1.8,0-3.5,0-5.3c1.8,0,3.5,0,5.3,0v-5.3c-1.8,0-3.5,0-5.3,0c0-1.8,0-3.5,0-5.3C51.2,10.6,49.4,10.6,47.7,10.6  L47.7,10.6z M47.7,10.6"
     id="path5" /><path
     fill="#848080"
     d="M0,18.5C-0.4,9,8,0.2,17.6,0.1c4.9-0.4,9.6,1.5,13.3,4.6c-1.5,1.7-3.1,3.3-4.7,4.8C22.9,7.5,19,6,15.2,7.3  c-6.1,1.7-9.8,9-7.6,14.9c1.9,6.3,9.5,9.7,15.4,7.1c3.1-1.1,5.1-3.9,6-7c-3.5-0.1-7.1,0-10.6-0.1c0-2.1,0-4.2,0-6.3  c5.9,0,11.8,0,17.7,0c0.4,5.2-0.4,10.7-3.7,14.8c-4.6,5.9-13.1,7.6-19.9,5.3C5.2,33.6-0.1,26.3,0,18.5L0,18.5z M0,18.5"
     id="path7"
     style="fill:#ffffff" /><path
     fill="#848080"
     d="M47.7,10.6h5.3c0,1.8,0,3.5,0,5.3c1.8,0,3.5,0,5.3,0v5.3c-1.8,0-3.5,0-5.3,0c0,1.8,0,3.5,0,5.3  c-1.8,0-3.5,0-5.3,0c0-1.8,0-3.5,0-5.3c-1.8,0-3.5,0-5.3,0v-5.3c1.8,0,3.5,0,5.3,0C47.6,14.1,47.6,12.3,47.7,10.6L47.7,10.6z   M47.7,10.6"
     id="path9"
     style="fill:#ffffff" /></svg>