<?xml version="1.0" encoding="UTF-8" standalone="no"?>
<!-- Generator: Adobe Illustrator 18.0.0, SVG Export Plug-In . SVG Version: 6.00 Build 0)  -->

<svg
   xmlns:dc="http://purl.org/dc/elements/1.1/"
   xmlns:cc="http://creativecommons.org/ns#"
   xmlns:rdf="http://www.w3.org/1999/02/22-rdf-syntax-ns#"
   xmlns:svg="http://www.w3.org/2000/svg"
   xmlns="http://www.w3.org/2000/svg"
   xmlns:sodipodi="http://sodipodi.sourceforge.net/DTD/sodipodi-0.dtd"
   xmlns:inkscape="http://www.inkscape.org/namespaces/inkscape"
   version="1.1"
   id="Layer_1"
   x="0px"
   y="0px"
   viewBox="77.7 141 258.6 512"
   enable-background="new 77.7 141 258.6 512"
   xml:space="preserve"
   inkscape:version="0.91 r13725"
   sodipodi:docname="social-fb_hover.svg"><metadata
     id="metadata9"><rdf:RDF><cc:Work
         rdf:about=""><dc:format>image/svg+xml</dc:format><dc:type
           rdf:resource="http://purl.org/dc/dcmitype/StillImage" /></cc:Work></rdf:RDF></metadata><defs
     id="defs7" /><sodipodi:namedview
     pagecolor="#ffffff"
     bordercolor="#666666"
     borderopacity="1"
     objecttolerance="10"
     gridtolerance="10"
     guidetolerance="10"
     inkscape:pageopacity="0"
     inkscape:pageshadow="2"
     inkscape:window-width="775"
     inkscape:window-height="480"
     id="namedview5"
     showgrid="false"
     inkscape:zoom="0.4609375"
     inkscape:cx="129.3"
     inkscape:cy="256"
     inkscape:window-x="0"
     inkscape:window-y="27"
     inkscape:window-maximized="0"
     inkscape:current-layer="Layer_1" /><path
     fill="#385C8E"
     d="M85.9,413.7h56.1v231.1c0,4.6,3.7,8.3,8.3,8.3h95.2c4.6,0,8.3-3.7,8.3-8.3v-230h64.5c4.2,0,7.7-3.1,8.2-7.3  l9.8-85.1c0.3-2.3-0.5-4.7-2-6.4c-1.6-1.8-3.8-2.8-6.2-2.8h-74.3v-53.3c0-16.1,8.7-24.2,25.7-24.2c2.4,0,48.6,0,48.6,0  c4.6,0,8.3-3.7,8.3-8.3v-78.1c0-4.6-3.7-8.3-8.3-8.3h-67c-0.5,0-1.5-0.1-3.1-0.1c-11.6,0-52,2.3-83.9,31.6  c-35.3,32.5-30.4,71.5-29.3,78.2v62.4H85.9c-4.6,0-8.3,3.7-8.3,8.3v84C77.7,410,81.4,413.7,85.9,413.7z"
     id="path3"
     style="fill:#ffffff" /></svg>