<?xml version="1.0" encoding="utf-8"?>
<!-- Generator: Adobe Illustrator 18.0.0, SVG Export Plug-In . SVG Version: 6.00 Build 0)  -->
<!DOCTYPE svg PUBLIC "-//W3C//DTD SVG 1.1//EN" "http://www.w3.org/Graphics/SVG/1.1/DTD/svg11.dtd">
<svg version="1.1" id="Layer_1" xmlns="http://www.w3.org/2000/svg" xmlns:xlink="http://www.w3.org/1999/xlink" x="0px" y="0px"
	 viewBox="-48.5 190.4 511.5 413.2" enable-background="new -48.5 190.4 511.5 413.2" xml:space="preserve">
<path fill="#65BBF2" d="M308.5,190.4c-59.3,0.9-106,52.1-106,111.4v14.4c-106-18.9-158.1-47.6-215.6-107.8
	c-34.1,66.5,3.6,122.2,44.9,152.7c-27.8,0-51.2-3.6-69.2-19.8c-1.8-0.9-3.6,0-2.7,1.8c15.3,55.7,67.4,96.1,107.8,107.8
	c-36.8,0-61.1,5.4-87.1-10.8c-1.8-0.9-3.6,0-2.7,1.8c19.8,54.8,59.3,71.9,116.8,71.9C66,535.3,27.4,556.9-45.4,558.7
	c-2.7,0-4.5,3.6-1.8,5.4c26.9,22.5,93.4,39.5,186.8,39.5c153.6,0,278.5-136.5,278.5-305.4v-9c24.3-9,37.7-30.5,44.9-52.1
	c0-0.9-0.9-1.8-1.8-1.8l-51.2,18c-0.9,0-1.8-1.8-0.9-2.7c21.6-17.1,37.7-38.6,44.9-59.3c0,0-0.9-0.9-1.8-0.9
	c-24.3,9.9-47.6,19.8-65.6,25.2c-2.7,0.9-6.3,0.9-9-0.9C366,208.4,331,190.4,308.5,190.4"/>
</svg>
