<?xml version="1.0" encoding="utf-8"?>
<!-- Generator: Adobe Illustrator 18.0.0, SVG Export Plug-In . SVG Version: 6.00 Build 0)  -->
<!DOCTYPE svg PUBLIC "-//W3C//DTD SVG 1.1//EN" "http://www.w3.org/Graphics/SVG/1.1/DTD/svg11.dtd">
<svg version="1.1" id="Режим_изоляции"
	 xmlns="http://www.w3.org/2000/svg" xmlns:xlink="http://www.w3.org/1999/xlink" x="0px" y="0px" viewBox="0 0 140.5 194.2"
	 enable-background="new 0 0 140.5 194.2" xml:space="preserve">
<g>
	<g>
		<defs>
			<rect id="SVGID_1_" x="0" y="0" width="140.5" height="194.2"/>
		</defs>
		<clipPath id="SVGID_2_">
			<use xlink:href="#SVGID_1_"  overflow="visible"/>
		</clipPath>
		<path clip-path="url(#SVGID_2_)" fill="#F15831" d="M117.8,118c14.4-14.4,22.4-33.6,22.4-54.1c0-20.4-8-39.6-22.4-54.1
			c-1.3-1.3-3.5-1.3-4.8,0l-6.6,6.6C81.4-6,42.7-5.2,18.7,18.9c-24.1,24.1-24.8,62.7-2.3,87.8l-6.6,6.6c-0.6,0.6-1,1.5-1,2.4
			c0,0.9,0.4,1.8,1,2.4c13.6,13.6,31.5,21.5,50.7,22.3v33H48.1c-9.3,0-16.9,7.6-16.9,16.9c0,1.9,1.5,3.4,3.4,3.4H93
			c1.9,0,3.4-1.5,3.4-3.4c0-9.3-7.6-16.9-16.9-16.9H67.2v-33C86.3,139.5,104.2,131.7,117.8,118L117.8,118z M89,186.9H38.5
			c1.4-3.9,5.2-6.8,9.6-6.8h31.4C83.9,180.1,87.6,182.9,89,186.9L89,186.9z M109.3,51.7c-0.5,2-1.1,4-1.8,6
			c-7.7-2.4-14.8-6.4-20.9-11.8l19.6-19.6C110.7,32.5,111.8,41.3,109.3,51.7L109.3,51.7z M18.2,76.3c0.5-2,1.1-4,1.8-6
			c7.7,2.4,14.8,6.4,20.9,11.8l-19.6,19.6C16.9,95.5,15.8,86.6,18.2,76.3L18.2,76.3z M59,64L45.6,77.4C38.9,71.3,31,66.8,22.5,64.1
			c3.5-7.5,8.6-14.9,14.9-21.6L59,64z M45.6,86.9c5.4,6.1,9.4,13.2,11.8,20.9c-2,0.7-4,1.3-6,1.8c-10.3,2.4-19.2,1.3-25.4-3.1
			L45.6,86.9z M50.4,82.1l13.4-13.4l21.6,21.6c-6.7,6.3-14.1,11.4-21.6,14.9C61,96.7,56.5,88.9,50.4,82.1L50.4,82.1z M68.6,64
			l13.4-13.4c6.7,6.1,14.6,10.6,23.1,13.3c-3.5,7.5-8.6,14.9-14.9,21.6L68.6,64z M81.9,41c-5.4-6.1-9.4-13.2-11.8-20.9
			c12.5-4.4,23.9-4,31.4,1.3L81.9,41z M68.5,13.6c-0.4-2.1-0.7-4.3-0.8-6.4c5.4,0.4,10.7,1.5,15.8,3.3
			C78.7,10.8,73.7,11.8,68.5,13.6L68.5,13.6z M62.1,16.1c-1,0.5-2,0.9-3,1.4c-1.7,0.8-2.3,2.9-1.5,4.5c0.8,1.7,2.9,2.3,4.5,1.5
			c0.6-0.3,1.2-0.6,1.7-0.8c2.7,8.5,7.2,16.3,13.3,23.1L63.8,59.2L42.2,37.6c1-0.9,2-1.8,3-2.6c1.4-1.2,1.6-3.4,0.4-4.8
			c-1.2-1.4-3.4-1.6-4.8-0.4c-1.1,1-2.2,2-3.3,3L25.9,21.3c10-8.9,22.4-13.7,35-14.3C61.1,10.1,61.5,13.2,62.1,16.1L62.1,16.1z
			 M32.6,37.6c-7.2,7.6-12.9,16.1-16.7,24.7c-3-0.6-6-1-9-1.2c0.6-12.6,5.4-25,14.3-35L32.6,37.6z M13.3,68.7c-0.7,2-1.3,4-1.7,6
			c-0.7,3.1-1.2,6-1.4,8.9c-1.9-5.1-3-10.4-3.3-15.7C9.1,68.1,11.2,68.3,13.3,68.7L13.3,68.7z M53,116.2c2-0.5,4-1.1,6-1.7
			c0.4,2.1,0.7,4.3,0.8,6.5c-5.5-0.4-10.8-1.5-15.8-3.4C46.9,117.3,49.9,116.9,53,116.2L53,116.2z M66.6,120.9
			c-0.2-3.1-0.6-6.1-1.2-9.1c8.6-3.9,17-9.6,24.7-16.7l11.5,11.5C91.9,115.3,79.7,120.3,66.6,120.9L66.6,120.9z M106.4,101.8
			L94.9,90.4c7.2-7.6,12.9-16.1,16.7-24.7c3,0.6,6,1,9,1.2C120.1,79.4,115.3,91.8,106.4,101.8L106.4,101.8z M114.2,59.3
			c0.7-2,1.3-4,1.7-6c0.7-3.1,1.2-6,1.4-8.9c1.9,5.1,3,10.4,3.3,15.7C118.5,59.9,116.3,59.7,114.2,59.3L114.2,59.3z M21.1,111.4
			c11.7,10.6,26.7,16.4,42.7,16.4c17,0,33.1-6.6,45.1-18.7c24.1-24.1,24.8-62.7,2.3-87.8l4.2-4.2C127,30,133.4,46.5,133.4,64
			c0,18.6-7.2,36.1-20.4,49.3c-13.2,13.2-30.7,20.4-49.3,20.4c-17.5,0-34-6.4-46.8-18.1L21.1,111.4z M21.1,111.4"/>
	</g>
	<path fill="#F15831" d="M48.7,27.5c1.2,2.8,5.4,2.7,6.3-0.2c1-2.9-2.3-5.5-4.9-4C48.7,24.1,48,25.9,48.7,27.5
		C48.8,27.7,48.6,27.2,48.7,27.5L48.7,27.5z M48.7,27.5"/>
</g>
</svg>
