<?xml version="1.0" encoding="utf-8"?>
<!-- Generator: Adobe Illustrator 18.0.0, SVG Export Plug-In . SVG Version: 6.00 Build 0)  -->
<!DOCTYPE svg PUBLIC "-//W3C//DTD SVG 1.1//EN" "http://www.w3.org/Graphics/SVG/1.1/DTD/svg11.dtd">
<svg version="1.1" id="Layer_1" xmlns="http://www.w3.org/2000/svg" xmlns:xlink="http://www.w3.org/1999/xlink" x="0px" y="0px"
	 viewBox="209.8 163.4 225.5 283.7" enable-background="new 209.8 163.4 225.5 283.7" xml:space="preserve">
<path fill="#F05731" stroke="#FFFFFF" stroke-width="4" stroke-miterlimit="10" d="M322.6,200.4c3.2,0,5.8-2.6,5.8-5.8
	c0-3.2-2.6-5.8-5.8-5.8c-37.2,0-69.6,25.1-79,61c-0.8,3.1,1.1,6.3,4.2,7.1c0.5,0.1,1,0.2,1.5,0.2c2.6,0,5-1.7,5.6-4.4
	C262.9,221.9,290.7,200.4,322.6,200.4z"/>
<path fill="#F05731" stroke="#FFFFFF" stroke-width="4" stroke-miterlimit="10" d="M316.7,346.1c0,3.2,2.6,5.8,5.8,5.8
	c37.2,0,69.6-25.1,79-61c0.8-3.1-1.1-6.3-4.2-7.1c-3.1-0.8-6.3,1.1-7.1,4.2c-8,30.8-35.8,52.3-67.7,52.3
	C319.4,340.2,316.7,342.8,316.7,346.1z"/>
<path fill="#F05731" stroke="#FFFFFF" stroke-width="4" stroke-miterlimit="10" d="M432.5,399.1l-33.2-57.4
	c17.4-18.7,28.1-43.8,28.1-71.4c0-57.8-47.1-104.9-104.9-104.9c-57.8,0-104.9,47.1-104.9,104.9c0,27.5,10.7,52.6,28.1,71.4
	l-33.2,57.4c-1.2,2-1,4.6,0.4,6.5c1.4,1.9,3.9,2.7,6.1,2.1l45.3-12.1l12.1,45.3c0.6,2.3,2.5,4,4.9,4.3c0.3,0,0.5,0.1,0.8,0.1
	c2.1,0,4-1.1,5-2.9l35.2-61.1l35.3,61.1c1.1,1.8,3,2.9,5,2.9c0.3,0,0.5,0,0.8-0.1c2.3-0.3,4.3-2,4.9-4.3l12.1-45.3l45.3,12.1
	c2.3,0.6,4.7-0.2,6.1-2.1C433.5,403.7,433.7,401.1,432.5,399.1z M322.6,177c51.4,0,93.2,41.8,93.2,93.2c0,51.4-41.8,93.2-93.2,93.2
	s-93.2-41.8-93.2-93.2C229.3,218.9,271.2,177,322.6,177z M284.3,424.2l-10-37.3c-0.8-3.1-4-5-7.1-4.1l-37.4,10l24.7-42.7
	c16,13.7,36.2,22.7,58.3,24.7L284.3,424.2z M378,382.7c-3.1-0.8-6.3,1-7.1,4.1l-10,37.4l-28.6-49.5c22.2-2.1,42.4-11,58.4-24.8
	l24.7,42.7L378,382.7z"/>
<path fill="#F05731" stroke="#F05731" stroke-width="3" stroke-linecap="round" stroke-linejoin="round" stroke-miterlimit="10" d="
	M294.2,310.2c-0.3,0-0.7-0.1-1-0.3c-0.5-0.4-0.8-1-0.6-1.6l5-29.3l-21.3-20.8c-0.4-0.4-0.6-1.1-0.4-1.7c0.2-0.6,0.7-1,1.3-1.1
	l29.4-4.3l13.2-26.7c0.3-0.6,0.8-0.9,1.5-0.9c0.6,0,1.2,0.3,1.5,0.9l13.2,26.7l29.4,4.3c0.6,0.1,1.1,0.5,1.3,1.1
	c0.2,0.6,0,1.2-0.4,1.7L345,279l5,29.3c0.1,0.6-0.2,1.2-0.7,1.6c-0.5,0.4-1.2,0.4-1.7,0.1l-26.3-13.8L295,310.1
	C294.8,310.2,294.5,310.2,294.2,310.2L294.2,310.2z M281,258.2l19.6,19.1c0.4,0.4,0.6,0.9,0.5,1.4l-4.6,26.9l24.2-12.7
	c0.5-0.2,1-0.2,1.5,0l24.2,12.7l-4.6-26.9c-0.1-0.5,0.1-1.1,0.5-1.4l19.6-19.1l-27-3.9c-0.5-0.1-1-0.4-1.2-0.9l-12.1-24.5
	l-12.1,24.5c-0.2,0.5-0.7,0.8-1.2,0.9L281,258.2z M281,258.2"/>
</svg>
