<?xml version="1.0" encoding="utf-8"?>
<!-- Generator: Adobe Illustrator 18.0.0, SVG Export Plug-In . SVG Version: 6.00 Build 0)  -->
<!DOCTYPE svg PUBLIC "-//W3C//DTD SVG 1.1//EN" "http://www.w3.org/Graphics/SVG/1.1/DTD/svg11.dtd">
<svg version="1.1" id="Слой_1" xmlns="http://www.w3.org/2000/svg" xmlns:xlink="http://www.w3.org/1999/xlink" x="0px" y="0px"
	 viewBox="0 0 37.9 65" enable-background="new 0 0 37.9 65" xml:space="preserve">
<path d="M11.7,32.5L37.3,6.9c0.4-0.4,0.7-0.9,0.7-1.5c0-0.6-0.2-1.1-0.7-1.5L34,0.7C33.6,0.2,33.1,0,32.5,0C32,0,31.5,0.2,31,0.7
	L0.7,31C0.2,31.5,0,32,0,32.5c0,0.6,0.2,1.1,0.7,1.5L31,64.4c0.4,0.4,0.9,0.7,1.5,0.7c0.6,0,1.1-0.2,1.5-0.7l3.3-3.3
	c0.4-0.4,0.7-0.9,0.7-1.5c0-0.6-0.2-1.1-0.7-1.5L11.7,32.5z M11.7,32.5"/>
</svg>
