<?xml version="1.0" encoding="utf-8"?>
<!-- Generator: Adobe Illustrator 18.0.0, SVG Export Plug-In . SVG Version: 6.00 Build 0)  -->
<!DOCTYPE svg PUBLIC "-//W3C//DTD SVG 1.1//EN" "http://www.w3.org/Graphics/SVG/1.1/DTD/svg11.dtd">
<svg version="1.1" id="Слой_1" xmlns="http://www.w3.org/2000/svg" xmlns:xlink="http://www.w3.org/1999/xlink" x="0px" y="0px"
	 viewBox="0 0 37.9 65" enable-background="new 0 0 37.9 65" xml:space="preserve">
<path d="M0.7,58.1C0.2,58.6,0,59.1,0,59.6c0,0.6,0.2,1.1,0.7,1.5l3.3,3.3C4.3,64.8,4.8,65,5.4,65c0.6,0,1.1-0.2,1.5-0.7L37.3,34
	c0.4-0.4,0.7-0.9,0.7-1.5c0-0.6-0.2-1.1-0.7-1.5L6.9,0.7C6.5,0.2,6,0,5.4,0C4.8,0,4.3,0.2,3.9,0.7L0.7,3.9C0.2,4.3,0,4.8,0,5.4
	C0,6,0.2,6.5,0.7,6.9l25.6,25.6L0.7,58.1z M26.3,32.5"/>
</svg>
