<?xml version="1.0" encoding="utf-8"?>
<!-- Generator: Adobe Illustrator 18.0.0, SVG Export Plug-In . SVG Version: 6.00 Build 0)  -->
<!DOCTYPE svg PUBLIC "-//W3C//DTD SVG 1.1//EN" "http://www.w3.org/Graphics/SVG/1.1/DTD/svg11.dtd">
<svg version="1.1" id="Слой_1" xmlns="http://www.w3.org/2000/svg" xmlns:xlink="http://www.w3.org/1999/xlink" x="0px" y="0px"
	 viewBox="0 0 183.5 159.1" enable-background="new 0 0 183.5 159.1" xml:space="preserve">
<g>
	<path d="M180.5,85.6h-9.2V27.5c0-1.8-1.2-3.1-3.1-3.1H104V3.1c0-1.8-1.2-3.1-3.1-3.1H27.5c-1.8,0-3.1,1.2-3.1,3.1v64.2H3.1
		c-1.8,0-3.1,1.2-3.1,3V156c0,1.8,1.2,3.1,3.1,3.1h177.4c1.8,0,3.1-1.2,3.1-3.1V88.7C183.5,86.9,182.3,85.6,180.5,85.6L180.5,85.6z
		 M140.7,30.6v18.4h-12.2V30.6H140.7z M122.4,30.6V52c0,1.8,1.2,3,3.1,3h18.4c1.8,0,3-1.2,3-3V30.6h18.4v55.1H104V30.6H122.4z
		 M134.6,91.8h12.2v18.4h-12.2V91.8z M70.3,6.1v18.3H58.1V6.1H70.3z M30.6,6.1H52v21.4c0,1.8,1.2,3.1,3,3.1h18.4
		c1.8,0,3.1-1.2,3.1-3.1V6.1h21.4v61.2H30.6V6.1z M42.8,73.4h18.4v24.5H42.8V73.4z M6.1,73.4h30.6v27.5c0,1.8,1.2,3.1,3,3.1h24.5
		c1.8,0,3.1-1.2,3.1-3.1V73.4h30.6v79.5H6.1V73.4z M177.4,152.9H104V91.8h24.5v21.4c0,1.8,1.2,3,3,3h18.4c1.8,0,3.1-1.2,3.1-3V91.8
		h24.5V152.9z M177.4,152.9"/>
</g>
</svg>
