<?xml version="1.0" encoding="utf-8"?>
<!-- Generator: Adobe Illustrator 18.0.0, SVG Export Plug-In . SVG Version: 6.00 Build 0)  -->
<!DOCTYPE svg PUBLIC "-//W3C//DTD SVG 1.1//EN" "http://www.w3.org/Graphics/SVG/1.1/DTD/svg11.dtd">
<svg version="1.1" id="Слой_1" xmlns="http://www.w3.org/2000/svg" xmlns:xlink="http://www.w3.org/1999/xlink" x="0px" y="0px"
	 viewBox="0 0 26.3 26.4" enable-background="new 0 0 26.3 26.4" xml:space="preserve">
<g>
	<path d="M13.2,10.5c-1.9,0-3.4-1.5-3.4-3.4c0-1.9,1.5-3.4,3.4-3.4c1.9,0,3.4,1.5,3.4,3.4C16.5,9,15,10.5,13.2,10.5L13.2,10.5z
		 M13.2,4.6c-1.4,0-2.6,1.2-2.6,2.6c0,1.4,1.2,2.6,2.6,2.6c1.4,0,2.6-1.2,2.6-2.6C15.7,5.7,14.6,4.6,13.2,4.6L13.2,4.6z M13.2,4.6"
		/>
	<path d="M13.2,19.4c-0.1,0-0.2,0-0.3-0.1C12.6,18.9,6,11,6,7.2C6,3.2,9.2,0,13.2,0c3.9,0,7.2,3.2,7.2,7.2c0,3.8-6.6,11.7-6.9,12.1
		C13.4,19.3,13.3,19.4,13.2,19.4L13.2,19.4z M13.2,0.8c-3.5,0-6.4,2.9-6.4,6.4c0,3.1,5,9.5,6.4,11.2c1.3-1.6,6.4-8.1,6.4-11.2
		C19.5,3.7,16.7,0.8,13.2,0.8L13.2,0.8z M13.2,0.8"/>
	<path d="M25.9,26.4H0.4C0.2,26.4,0,26.2,0,26V9.7c0-0.2,0.2-0.4,0.4-0.4H7c0.2,0,0.4,0.2,0.4,0.4c0,0.2-0.2,0.4-0.4,0.4H0.8v15.5
		h24.7V10.1h-6.2c-0.2,0-0.4-0.2-0.4-0.4c0-0.2,0.2-0.4,0.4-0.4h6.6c0.2,0,0.4,0.2,0.4,0.4V26C26.3,26.2,26.1,26.4,25.9,26.4
		L25.9,26.4z M25.9,26.4"/>
</g>
</svg>
