<?xml version="1.0" encoding="utf-8"?>
<!-- Generator: Adobe Illustrator 18.0.0, SVG Export Plug-In . SVG Version: 6.00 Build 0)  -->
<!DOCTYPE svg PUBLIC "-//W3C//DTD SVG 1.1//EN" "http://www.w3.org/Graphics/SVG/1.1/DTD/svg11.dtd">
<svg version="1.1" id="Layer_1" xmlns="http://www.w3.org/2000/svg" xmlns:xlink="http://www.w3.org/1999/xlink" x="0px" y="0px"
	 viewBox="21.1 141 371.8 512" enable-background="new 21.1 141 371.8 512" xml:space="preserve">
<path d="M207,417.7c-28,0-50.8,22.8-50.8,50.8c0,13.9,5.8,27.3,15.9,36.9v45.9c0,19.3,15.7,35,35,35s35-15.7,35-35v-45.9
	c10.1-9.6,15.9-23,15.9-36.9C257.8,440.5,235,417.7,207,417.7z M225,487.6c-4.9,4.6-7.6,11-7.6,17.5v46.2c0,5.7-4.6,10.3-10.3,10.3
	c-5.7,0-10.3-4.6-10.3-10.3v-46.2c0-6.6-2.8-13-7.6-17.5c-5.3-5-8.2-11.8-8.2-19.1c0-14.4,11.8-26.2,26.2-26.2s26.2,11.8,26.2,26.2
	C233.2,475.8,230.3,482.6,225,487.6z"/>
<path d="M356,350.9h-36.9l-7.4-0.1c-0.9,0.1-6,0-13.3,0l-3.9,0.1H119.5v-97.8c0-48.2,39.2-87.5,87.5-87.5
	c48.2,0,87.5,39.2,87.5,87.5v22.4c8.2-0.2,16.3,0.3,24.5,0.2l0.1-22.7c0-61.8-50.3-112.1-112.1-112.1
	c-61.8,0-112.1,50.3-112.1,112.1v97.8H58c-20.4,0-36.9,16.6-36.9,36.9v228.3c0,20.4,16.6,36.9,36.9,36.9h298
	c20.4,0,36.9-16.6,36.9-36.9V387.8C392.9,367.4,376.3,350.9,356,350.9z M368.3,616.1L368.3,616.1c0,6.8-5.5,12.3-12.3,12.3H58
	c-6.8,0-12.3-5.5-12.3-12.3V387.8c0-6.8,5.5-12.3,12.3-12.3h298c6.8,0,12.3,5.5,12.3,12.3V616.1z"/>
</svg>
