<?xml version="1.0" encoding="utf-8"?>
<!-- Generator: Adobe Illustrator 18.0.0, SVG Export Plug-In . SVG Version: 6.00 Build 0)  -->
<!DOCTYPE svg PUBLIC "-//W3C//DTD SVG 1.1//EN" "http://www.w3.org/Graphics/SVG/1.1/DTD/svg11.dtd">
<svg version="1.1" id="Слой_1" xmlns="http://www.w3.org/2000/svg" xmlns:xlink="http://www.w3.org/1999/xlink" x="0px" y="0px"
	 viewBox="0 0 51 38.1" enable-background="new 0 0 51 38.1" xml:space="preserve">
<path fill="#1D1D1B" d="M12.6,37.4c0.3,0.4,0.8,0.7,1.3,0.7c0.1,0,0.2,0,0.3-0.1c0.1,0,0.2,0.1,0.2,0.1c0.5,0,0.9-0.2,1.2-0.5
	L50.5,2.7c0.6-0.6,0.6-1.6,0-2.3c-0.6-0.6-1.6-0.6-2.3,0l-34,34L2.7,23c-0.6-0.6-1.6-0.6-2.3,0c-0.6,0.6-0.6,1.6,0,2.3L12.6,37.4z
	 M12.6,37.4"/>
</svg>
