<?xml version="1.0" encoding="utf-8"?><svg xmlns="http://www.w3.org/2000/svg" xmlns:xlink="http://www.w3.org/1999/xlink"><symbol viewBox="0 0 33.1 33.1" id="blogger"><g stroke-width="1.103" stroke-linecap="round" stroke-linejoin="round" stroke-miterlimit="10"><path d="M10.7 32.6h11.7c5.6 0 10.1-4.5 10.1-10.1l.1-7.3s-.2-1.4-1.7-1.4c-1.1 0-2.7 0-3.5-.7-.6-.5-.7-2.3-.8-3.6-.4-2.5-.6-2.6-1-3.4-1.4-3-5.2-5.2-7.8-5.5h-7.1C5.1.6.6 5.1.6 10.7v11.8c0 5.5 4.5 10.1 10.1 10.1"/><path d="M10.4 8.8h6.2c1.2 0 2.1.9 2.1 2.2 0 1.2-.9 2.2-2.1 2.2h-6.2c-1.2 0-2.1-1-2.1-2.2 0-1.2.9-2.2 2.1-2.2m0 11.1h12.3c1.2 0 2.1 1 2.1 2.2 0 1.2-.9 2.2-2.1 2.2H10.4c-1.2 0-2.1-1-2.1-2.2 0-1.2.9-2.2 2.1-2.2"/></g></symbol><symbol viewBox="0 0 14.8 33.1" id="facebook"><path d="M3.3 16v16c0 .3.2.6.6.6h4.4c.3 0 .6-.2.6-.6V16"/><path d="M3.3 10.5H1.1c-.3 0-.6.2-.6.6v4.4c0 .3.2.6.6.6h2.2m5.5-.1h3.9c.3 0 .6-.2.7-.5l.9-4.4c.1-.3-.1-.5-.4-.5h-5m0-10h4.3v5.5H9.4l-.6.5v3.9m-5.5 0V6.1M8.9.6C5 .6 3.3 3.2 3.3 6.1"/></symbol><symbol viewBox="0 0 56.5 33.9" id="g-plus"><path d="M28.3 5.6C25.4 2.7 21.4.9 17 .9 8.2.9 1 8.1 1 16.9s7.2 16 16 16 16-7.2 16-16"/><path d="M38.6 17h16.9m-8.4-8.5v16.9" stroke-width="1.882" stroke-linecap="round" stroke-linejoin="round" stroke-miterlimit="10"/><path d="M32.9 16.9h-16"/></symbol><symbol viewBox="0 0 60 60" id="instagram"><path d="M17 19.9V1m42 54c0 2.2-1.8 4-4 4H5c-2.2 0-4-1.8-4-4V5c0-2.2 1.8-4 4-4h50c2.2 0 4 1.8 4 4v50z"/><ellipse cx="30" cy="29.9" rx="14" ry="13.9"/><path d="M20 20H1m58 0H40M51.7 15h-4.4C46 15 45 14 45 12.7V8.3C45 7 46 6 47.3 6h4.4C53 6 54 7 54 8.3v4.4c0 1.3-1 2.3-2.3 2.3z"/></symbol><symbol viewBox="0 0 19.2 36" id="left-arrow"><path d="M18.6.6L.6 18l18 17.4"/></symbol><symbol viewBox="0 0 60 60" id="more"><path d="M7 59V36m0-12.2V1m46 58V25m0-12.4V1M30 59V48m0-12.2V1"/><circle cx="30" cy="42" r="6"/><circle cx="53" cy="19" r="6"/><circle cx="7" cy="30" r="6"/></symbol><symbol viewBox="0 0 17 18" id="plus"><title>Shape 1 copy</title><path d="M8 1h1v8h8v1H9v8H8v-8H0V9h8z"/></symbol><symbol viewBox="0 0 19.2 36" id="right-arrow"><path d="M.6.6l18 17.4-18 17.4"/></symbol><symbol viewBox="0 0 24.8 25.3" id="rubrics"><g stroke-width=".842" stroke-linecap="round" stroke-linejoin="round" stroke-miterlimit="10"><path d="M.4.4h6.3v16H.4zm0 18.5h6.3v5.9H.4zm8.9-8.4h6.3v14.3H9.3zM9.3.4h6.3V8H9.3zM18.1 13.9h6.3v10.9h-6.3zm0-13.5h6.3v10.5h-6.3z"/></g></symbol><symbol id="small-menu" viewBox="0 0 60 42"><style>.jst0{fill:none;stroke:#fff;stroke-width:2;stroke-linecap:round;stroke-linejoin:round;stroke-miterlimit:10}</style><path class="jst0" d="M1 1h58M1 14.3h58M1 27.7h58M1 41h58"/></symbol><symbol viewBox="0 0 43.6 34.9" id="twitter"><path d="M29.8 1.5c2.4 0 4.4 1 5.9 2.6 1.9-.4 3.7-1 5.3-2-.6 1.9-1.9 3.5-3.7 4.5 1.7-.2 3.3-.6 4.8-1.3-1.1 1.6-2.7 3.1-4.3 4.2v1c0 10.7-8 23-23.4 23-5.1 0-9.4-1.4-13.1-3.6.7.1 1.3.1 2 .1 3.9 0 7.5-1.3 10.4-3.5-3.7-.1-6.7-2.4-7.8-5.6.6.1 1.2.1 1.7.1.8 0 1.5-.1 2.2-.3-3.8-.7-6.7-4-6.7-7.9v-.1c1.1.6 2.4 1 3.8 1C4.6 12.3 3.2 9.8 3.2 7c0-1.5.4-2.9 1.1-4.1 4.1 4.9 10.4 8.2 17.4 8.6-.1-.6-.2-1.4-.2-2 0-4.5 3.2-8 8.3-8m0-1.5C24.1 0 20 4 20 9.5v.4C14.4 9.2 9 6.3 5.4 2c-.3-.3-.7-.5-1.1-.5h-.1c-.5 0-.9.3-1.2.7C2.2 3.6 1.7 5.3 1.7 7c0 1.5.4 3 1 4.3-.1 0-.3.1-.4.2-.4.3-.7.7-.7 1.2v.1c0 2.8 1.3 5.3 3.3 7.1-.3.4-.4.9-.3 1.4.9 2.6 2.8 4.7 5.3 5.8-2 .9-4.2 1.4-6.5 1.4-.6 0-1.2 0-1.8-.1h-.2c-.6 0-1.2.4-1.4 1-.2.6 0 1.4.6 1.7C4.7 33.7 9.4 35 14.4 35c9.5 0 15.3-4.3 18.5-8 4-4.5 6.3-10.5 6.3-16.5v-.3c1.6-1.2 3-2.6 4-4 .2-.2.3-.6.3-.9 0-.8-.6-1.4-1.4-1.5H41.8c.2-.4.4-.9.5-1.3.2-.6 0-1.2-.5-1.6-.3-.2-.6-.3-.9-.3-.2 0-.5.1-.7.2-1.3.7-2.7 1.3-4.1 1.6C34.4.8 32.2 0 29.8 0z"/></symbol><symbol viewBox="0 0 60 37" id="vk"><path stroke-width="2" stroke-linecap="round" stroke-linejoin="round" stroke-miterlimit="10" d="M57.2 36h-7.7s-2.7.3-4.9-1.3c-2.9-2.1-5.8-6.2-9.6-6.2V34s-.1 2-2.1 2h-1.7c-2.7 0-9.2-.4-16.3-7.4C6.8 20.5 1.2 5.2 1.2 5.2s-.4-.9 0-1.5c.7-.8 3.3-.7 2.5-.7H10c2.5 0 3.2 1.8 3.2 1.8s1.4 3.1 3.1 6.3C20.4 18.5 24 20 24 20V8s.1-1.6-1.1-2.9c-.8-.9-2.3-1-2.8-1.1-.5 0 .6-1.4 1.5-2C23.4.8 26 1 26 1h6.3c1.9 0 2.8 1.3 2.8 2.6C35.1 5.8 35 19 35 19s3.1-.9 7-7.8c1.8-3.3 3.2-6.8 3.2-6.8s.2-.6.6-.9c.7-.6 2.1-.5 2.1-.5H57c1.6 0 2 .4 2 1.5 0 1.4-1.2 3.6-4.7 8.5-5.9 8.2-6.5 7.4-1.7 12.2 4.6 4.5 5.6 6.7 5.7 7 2 3.3-1.1 3.8-1.1 3.8z"/></symbol><symbol viewBox="0 0 44.6 33.5" id="youtube"><path stroke-width="1.488" stroke-linecap="round" stroke-linejoin="round" stroke-miterlimit="10" d="M22.3 32.7c10.9 0 15.8-.9 15.8-.9 1.6-.3 3.4-1.7 4-3.2 0 0 1.7-3.9 1.7-11.9S42.2 4.9 42.2 4.9c-.6-1.5-2.4-2.9-4-3.2 0 0-4.9-.9-15.8-.9-11-.1-15.9.9-15.9.9-1.6.3-3.4 1.7-4 3.2 0 0-1.7 3.9-1.7 11.9s1.7 11.9 1.7 11.9c.6 1.5 2.4 2.9 4 3.2 0-.1 4.9.8 15.8.8z"/><path stroke-width="1.488" stroke-linecap="round" stroke-linejoin="round" stroke-miterlimit="10" d="M17.1 24.6V8.9l13.4 7.5z"/></symbol></svg>